<?xml version="1.0" encoding="UTF-8" standalone="no"?>
<!-- Created with Inkscape (http://www.inkscape.org/) -->

<svg
   width="156.71211mm"
   height="9.6158304mm"
   viewBox="0 0 156.71211 9.6158304"
   version="1.1"
   id="svg5"
   xml:space="preserve"
   inkscape:version="1.3.2 (1:1.3.2+202311252150+091e20ef0f)"
   sodipodi:docname="icon.svg"
   xmlns:inkscape="http://www.inkscape.org/namespaces/inkscape"
   xmlns:sodipodi="http://sodipodi.sourceforge.net/DTD/sodipodi-0.dtd"
   xmlns:xlink="http://www.w3.org/1999/xlink"
   xmlns="http://www.w3.org/2000/svg"
   xmlns:svg="http://www.w3.org/2000/svg"><sodipodi:namedview
     id="namedview7"
     pagecolor="#505050"
     bordercolor="#ffffff"
     borderopacity="1"
     inkscape:showpageshadow="0"
     inkscape:pageopacity="0"
     inkscape:pagecheckerboard="1"
     inkscape:deskcolor="#505050"
     inkscape:document-units="mm"
     showgrid="false"
     inkscape:zoom="1.1893044"
     inkscape:cx="353.98843"
     inkscape:cy="-4.2041381"
     inkscape:window-width="1920"
     inkscape:window-height="1019"
     inkscape:window-x="0"
     inkscape:window-y="0"
     inkscape:window-maximized="1"
     inkscape:current-layer="layer1" /><defs
     id="defs2"><linearGradient
       id="linearGradient13028"
       inkscape:swatch="solid"
       gradientTransform="matrix(4.0721658e-7,0,0,4.0721658e-7,-134.99119,175.39126)"><stop
         style="stop-color:#ffffff;stop-opacity:1;"
         offset="0"
         id="stop13026" /></linearGradient><filter
       style="color-interpolation-filters:sRGB"
       inkscape:label="Brilliance"
       id="filter15535"
       x="0"
       y="0"
       width="1"
       height="1"><feColorMatrix
         values="1.8 -0 -0 0 -0.6 -0 1.8 -0 0 -0.6 -0 -0 1.8 0 -0.6 0 0 0 1 0 "
         id="feColorMatrix15533" /></filter><filter
       style="color-interpolation-filters:sRGB"
       inkscape:label="Brilliance"
       id="filter15535-3"
       x="0"
       y="0"
       width="1"
       height="1"><feColorMatrix
         values="1.8 -0 -0 0 -0.6 -0 1.8 -0 0 -0.6 -0 -0 1.8 0 -0.6 0 0 0 1 0 "
         id="feColorMatrix15533-6" /></filter><linearGradient
       inkscape:collect="always"
       xlink:href="#linearGradient13028"
       id="linearGradient17177"
       gradientUnits="userSpaceOnUse"
       gradientTransform="matrix(1.0209796,0,0,1.0209796,-30.90462,28.686676)"
       x1="62.723915"
       y1="127.45181"
       x2="70.370453"
       y2="127.45181" /><linearGradient
       id="linearGradient4952"
       inkscape:swatch="gradient"><stop
         style="stop-color:#9609cb;stop-opacity:1;"
         offset="0"
         id="stop4948" /><stop
         style="stop-color:#5197ef;stop-opacity:1"
         offset="1"
         id="stop4950" /></linearGradient><linearGradient
       id="linearGradient3949"><stop
         style="stop-color:#ff8353;stop-opacity:1;"
         offset="0"
         id="stop3945" /><stop
         style="stop-color:#ef2c5c;stop-opacity:1;"
         offset="1"
         id="stop3947" /></linearGradient><linearGradient
       id="linearGradient2682"
       inkscape:swatch="gradient"><stop
         style="stop-color:#cab611;stop-opacity:1;"
         offset="0"
         id="stop2678" /><stop
         style="stop-color:#34a16b;stop-opacity:1;"
         offset="1"
         id="stop2680" /></linearGradient><linearGradient
       id="linearGradient49155"
       inkscape:swatch="gradient"><stop
         style="stop-color:#ef2c5c;stop-opacity:1;"
         offset="0.16064256"
         id="stop49153" /><stop
         style="stop-color:#ff9369;stop-opacity:1;"
         offset="0.74698794"
         id="stop49151" /></linearGradient><linearGradient
       id="linearGradient49147"
       inkscape:swatch="gradient"><stop
         style="stop-color:#ef2c5c;stop-opacity:1;"
         offset="0"
         id="stop49145" /><stop
         style="stop-color:#ff9369;stop-opacity:1;"
         offset="1"
         id="stop49143" /></linearGradient><linearGradient
       id="linearGradient47747"
       inkscape:swatch="gradient"><stop
         style="stop-color:#ff9369;stop-opacity:1;"
         offset="0.25301206"
         id="stop47743" /><stop
         style="stop-color:#ef2c5c;stop-opacity:1;"
         offset="0.83935744"
         id="stop47745" /></linearGradient><linearGradient
       id="linearGradient47733"
       inkscape:swatch="gradient"><stop
         style="stop-color:#cab611;stop-opacity:1;"
         offset="0.10441767"
         id="stop47729" /><stop
         style="stop-color:#34a16b;stop-opacity:1;"
         offset="0.83935744"
         id="stop47731" /></linearGradient><linearGradient
       id="linearGradient47719"
       inkscape:swatch="gradient"><stop
         style="stop-color:#9609cb;stop-opacity:1;"
         offset="0.14257029"
         id="stop47715" /><stop
         style="stop-color:#5197ef;stop-opacity:1;"
         offset="0.86746985"
         id="stop47717" /></linearGradient><linearGradient
       id="linearGradient47711"
       inkscape:swatch="solid"
       gradientTransform="matrix(-1.0083931e-8,0,0,1.0059654e-8,11035.604,-3985.6317)"><stop
         style="stop-color:#000000;stop-opacity:1;"
         offset="0"
         id="stop47709" /></linearGradient><linearGradient
       id="linearGradient47705"
       inkscape:swatch="gradient"><stop
         style="stop-color:#a5a5a5;stop-opacity:1;"
         offset="0"
         id="stop47701" /><stop
         style="stop-color:#ffffff;stop-opacity:1;"
         offset="1"
         id="stop47703" /></linearGradient><linearGradient
       id="linearGradient2493"
       inkscape:swatch="solid"
       gradientTransform="matrix(0,0,0,0,-216977.73,2488.9081)"><stop
         style="stop-color:#000000;stop-opacity:1;"
         offset="1"
         id="stop2491" /></linearGradient><linearGradient
       id="linearGradient8269"
       inkscape:swatch="gradient"><stop
         style="stop-color:#ffce19;stop-opacity:1;"
         offset="0"
         id="stop8265" /><stop
         style="stop-color:#ed8700;stop-opacity:1;"
         offset="1"
         id="stop8267" /></linearGradient><linearGradient
       id="linearGradient8261"><stop
         style="stop-color:#f8c67b;stop-opacity:1;"
         offset="0"
         id="stop8259" /></linearGradient><linearGradient
       id="linearGradient8194"><stop
         style="stop-color:#ff9369;stop-opacity:1;"
         offset="0"
         id="stop8190" /><stop
         style="stop-color:#ef2c5c;stop-opacity:1;"
         offset="1"
         id="stop8192" /></linearGradient><filter
       style="color-interpolation-filters:sRGB"
       inkscape:label="Color Shift"
       id="filter3355"
       x="-7.5757202e-06"
       y="-4.9019363e-06"
       width="1.0000153"
       height="1.0000098"><feColorMatrix
         type="hueRotate"
         values="322"
         result="color1"
         id="feColorMatrix3351" /><feColorMatrix
         type="saturate"
         values="1"
         result="color2"
         id="feColorMatrix3353" /><feGaussianBlur
         stdDeviation="0.00059714693"
         id="feGaussianBlur3357"
         result="fbSourceGraphic" /><feColorMatrix
         result="fbSourceGraphicAlpha"
         in="fbSourceGraphic"
         values="0 0 0 -1 0 0 0 0 -1 0 0 0 0 -1 0 0 0 0 1 0"
         id="feColorMatrix4027" /><feColorMatrix
         id="feColorMatrix4029"
         type="hueRotate"
         values="77"
         result="color1"
         in="fbSourceGraphic" /><feColorMatrix
         id="feColorMatrix4031"
         type="saturate"
         values="1"
         result="color2" /></filter><clipPath
       clipPathUnits="userSpaceOnUse"
       id="clipPath1464"><rect
         style="opacity:0.276169;fill:url(#linearGradient13028);stroke-width:8.67006;stroke-linecap:round;stroke-linejoin:round"
         id="rect1466"
         width="212.89641"
         height="114.88921"
         x="-2721.4883"
         y="-923.37714"
         transform="matrix(0,1,1,0,0,0)" /></clipPath><clipPath
       clipPathUnits="userSpaceOnUse"
       id="clipPath4571"><rect
         style="opacity:0.276169;fill:url(#linearGradient13028);stroke-width:22.2632;stroke-linecap:round;stroke-linejoin:round"
         id="rect4573"
         width="709.79413"
         height="227.22069"
         x="-475.95242"
         y="1602.2736" /></clipPath><clipPath
       clipPathUnits="userSpaceOnUse"
       id="clipPath5290"><path
         id="path5292"
         style="opacity:0.120267;fill:url(#linearGradient13028);stroke-width:8.98001;stroke-linecap:round;stroke-linejoin:round"
         d="m -1005.8684,2661.5808 0.4167,-161.482 120.67876,-0.4167 v 161.8987 z"
         sodipodi:nodetypes="czccc" /></clipPath><linearGradient
       id="linearGradient1670"
       inkscape:swatch="gradient"><stop
         style="stop-color:#d02631;stop-opacity:1"
         offset="0"
         id="stop1666" /><stop
         style="stop-color:#f27c31;stop-opacity:1"
         offset="1"
         id="stop1668" /></linearGradient><linearGradient
       id="linearGradient1692"
       inkscape:swatch="gradient"><stop
         id="stop1688"
         offset="0"
         style="stop-color:#e02d2c;stop-opacity:1" /><stop
         id="stop1690"
         offset="1"
         style="stop-color:#e87830;stop-opacity:1" /></linearGradient><linearGradient
       id="linearGradient1058"
       inkscape:swatch="solid"
       gradientTransform="matrix(0.05935939,0,0,0.05186584,-228.20268,66.530975)"><stop
         style="stop-color:#7d50b1;stop-opacity:1;"
         offset="0"
         id="stop1056" /></linearGradient><filter
       style="color-interpolation-filters:sRGB"
       inkscape:label="Brilliance"
       id="filter15535-5"
       x="0"
       y="0"
       width="1"
       height="1"><feColorMatrix
         values="1.8 -0 -0 0 -0.6 -0 1.8 -0 0 -0.6 -0 -0 1.8 0 -0.6 0 0 0 1 0 "
         id="feColorMatrix15533-3" /></filter><filter
       style="color-interpolation-filters:sRGB"
       inkscape:label="Brilliance"
       id="filter15535-3-5"
       x="0"
       y="0"
       width="1"
       height="1"><feColorMatrix
         values="1.8 -0 -0 0 -0.6 -0 1.8 -0 0 -0.6 -0 -0 1.8 0 -0.6 0 0 0 1 0 "
         id="feColorMatrix15533-6-6" /></filter></defs><g
     inkscape:label="Camada 1"
     inkscape:groupmode="layer"
     id="layer1"
     transform="translate(-33.096442,-154.19783)"><path
       style="fill:url(#linearGradient17177);fill-opacity:1;stroke:url(#linearGradient13028);stroke-width:0.0775285;stroke-linecap:round;stroke-linejoin:round;stroke-dasharray:none"
       d="m 36.955613,162.96794 c -0.04167,-0.0461 -0.04077,-0.0792 0.03306,-1.21435 0.04175,-0.64184 0.0916,-1.41798 0.110782,-1.72477 0.03176,-0.50777 0.03912,-0.56142 0.08212,-0.59845 0.03972,-0.0342 0.09499,-0.0406 0.346795,-0.0406 h 0.299556 l 4.27e-4,-0.11039 c 7.03e-4,-0.17043 0.04019,-0.4054 0.09738,-0.57963 0.08713,-0.26539 0.268611,-0.4025 0.532356,-0.40216 0.386,4e-4 0.578203,0.27011 0.617047,0.86558 l 0.01477,0.2266 h 0.29862 c 0.254934,0 0.304651,0.006 0.339843,0.0412 0.03703,0.0371 0.210356,0.97754 0.545612,2.96065 l 0.02618,0.15487 -0.103149,0.13471 c -0.05673,0.074 -0.145807,0.17957 -0.197941,0.23441 l -0.09479,0.0998 h -1.452934 c -1.432219,0 -1.453547,-8e-4 -1.495779,-0.0474 z m 2.785678,-0.20326 c 0.0052,-0.009 -0.03586,-0.70692 -0.0912,-1.55057 -0.05535,-0.84364 -0.101016,-1.54735 -0.101486,-1.56379 -5.99e-4,-0.0226 -0.0545,-0.0283 -0.223881,-0.0232 l -0.223023,0.006 -0.0039,0.11885 c -0.0057,0.17411 -0.08215,0.24117 -0.187228,0.16432 -0.03759,-0.0274 -0.04945,-0.0775 -0.05749,-0.2425 -0.0026,-0.0521 -0.0042,-0.0523 -0.396484,-0.0523 h -0.393938 l -0.0069,0.13286 c -0.0061,0.11644 -0.01467,0.13717 -0.06929,0.16773 -0.09322,0.0522 -0.15394,-0.011 -0.163149,-0.16955 l -0.0069,-0.11942 -0.224157,-0.006 -0.224158,-0.006 -0.01422,0.1577 c -0.0078,0.0868 -0.0406,0.57079 -0.07283,1.0757 -0.03223,0.5049 -0.07291,1.13763 -0.09038,1.40607 -0.01747,0.26843 -0.02691,0.49607 -0.02098,0.50585 0.01366,0.0224 2.558966,0.0214 2.571706,-0.001 z m 0.289843,-0.25153 c 0.02096,-0.0375 -0.06515,-0.59805 -0.09671,-0.6296 -0.0085,-0.008 -0.01031,0.0153 -0.0042,0.0527 0.0061,0.0374 0.01771,0.19091 0.02578,0.34111 0.01413,0.26329 0.03067,0.31519 0.07512,0.23577 z m -1.181424,-3.24546 c -0.0012,-0.18757 -0.05884,-0.46963 -0.117062,-0.57321 -0.06745,-0.12 -0.177217,-0.17414 -0.320385,-0.15801 -0.127026,0.0143 -0.242028,0.12292 -0.280109,0.26454 -0.03171,0.1179 -0.07078,0.39254 -0.07136,0.50154 l -4.27e-4,0.0871 h 0.395094 0.395094 l -7.99e-4,-0.12201 z m -5.675763,2.81609 c -0.0528,-0.0307 -0.05243,-0.0915 0.0061,-0.98911 0.140565,-2.15621 0.163794,-2.51717 0.185257,-2.87863 0.03004,-0.50584 0.04365,-0.60933 0.08567,-0.65134 0.02754,-0.0275 0.113003,-0.0342 0.435762,-0.0342 h 0.401503 l 0.0145,-0.25337 c 0.03267,-0.57096 0.166353,-0.91448 0.414836,-1.06592 0.210486,-0.1283 0.561957,-0.11239 0.758351,0.0343 0.202824,0.15151 0.313674,0.45057 0.357837,0.96538 l 0.02741,0.31958 h 0.386304 c 0.288682,0 0.397208,0.008 0.429452,0.0316 0.03494,0.0255 0.06905,0.17932 0.179189,0.80763 l 0.136039,0.77607 -0.0281,0.51099 c -0.02066,0.37601 -0.03342,0.49045 -0.04825,0.43323 -0.01109,-0.0428 -0.02286,-0.074 -0.02617,-0.0694 -0.0033,0.004 0.0014,0.11817 0.01067,0.25239 0.0092,0.13421 0.0078,0.37474 -0.003,0.53454 -0.0108,0.15977 -0.03093,0.47352 -0.04471,0.69722 -0.01379,0.22369 -0.03071,0.45117 -0.03761,0.50548 l -0.01254,0.0988 -1.793931,-8e-4 c -1.175196,-3.9e-4 -1.807958,-0.009 -1.834601,-0.0244 z m 3.584669,-0.30607 c -8.8e-5,-0.0544 -0.01051,-0.2452 -0.02308,-0.42416 -0.02307,-0.32854 -0.232338,-3.54971 -0.232338,-3.57634 0,-0.008 -0.146418,-0.0143 -0.325372,-0.0143 h -0.32537 v 0.16965 c 0,0.18667 -0.02064,0.22544 -0.120034,0.22544 -0.08616,0 -0.112374,-0.0566 -0.112374,-0.2425 v -0.15259 h -0.546159 -0.54616 l -3.52e-4,0.13363 c -4.28e-4,0.17532 -0.0164,0.22817 -0.07724,0.2555 -0.06751,0.0303 -0.154382,-0.0103 -0.156466,-0.0733 -8.81e-4,-0.0266 -0.0036,-0.10608 -0.0058,-0.17638 l -0.0042,-0.12782 -0.320037,-0.006 c -0.243879,-0.004 -0.322326,4e-4 -0.329653,0.0233 -0.0053,0.0163 -0.04755,0.63107 -0.09392,1.36606 -0.04637,0.73498 -0.104579,1.63963 -0.129354,2.01032 -0.02478,0.37069 -0.04505,0.68182 -0.04505,0.69142 0,0.009 0.763463,0.0174 1.696583,0.0174 h 1.69658 l -2.52e-4,-0.0987 z m -1.14949,-4.47387 c -0.04436,-0.61116 -0.165401,-0.87638 -0.425414,-0.93215 -0.132313,-0.0284 -0.28228,-0.001 -0.381225,0.0693 -0.145968,0.10393 -0.238601,0.39607 -0.2662,0.83954 l -0.01555,0.24983 h 0.552417 0.552417 z m 4.672201,4.06848 c -0.0083,-0.0217 -0.02007,-0.14453 -0.02615,-0.27308 -0.01038,-0.21958 -0.04932,-0.83308 -0.219086,-3.45185 -0.0385,-0.59399 -0.07001,-1.10383 -0.07001,-1.133 v -0.053 h -0.383474 -0.383474 v 0.18592 c 0,0.15648 -0.0076,0.19348 -0.04767,0.2336 -0.03341,0.0334 -0.06296,0.0429 -0.09877,0.0318 -0.0735,-0.023 -0.08518,-0.0512 -0.08593,-0.20724 -3.53e-4,-0.0767 -0.0069,-0.16296 -0.01469,-0.19172 l -0.01402,-0.0523 h -0.636404 -0.636412 v 0.18593 c 0,0.15493 -0.0078,0.19368 -0.04649,0.23241 -0.05595,0.0559 -0.0678,0.0568 -0.134272,0.0102 -0.04644,-0.0325 -0.05165,-0.056 -0.05165,-0.23242 v -0.19623 h -0.391748 -0.391754 l -0.01435,0.18012 c -0.0079,0.099 -0.02138,0.303 -0.02999,0.4532 l -0.01565,0.27308 h -0.11279 -0.112793 l -1.76e-4,-0.0987 c -4.27e-4,-0.29215 0.05533,-0.93999 0.08496,-0.98775 0.03194,-0.0514 0.03994,-0.0523 0.508351,-0.0523 h 0.475906 v -0.11217 c 0,-0.37546 0.08684,-0.84858 0.199421,-1.08658 0.150517,-0.31815 0.461387,-0.47114 0.825258,-0.40611 0.452234,0.0808 0.668282,0.47768 0.714467,1.31241 l 0.01554,0.28083 0.468175,0.006 c 0.381264,0.005 0.473519,0.0127 0.496964,0.0409 0.01584,0.0191 0.05298,0.17313 0.08256,0.34234 0.02957,0.16921 0.175256,1.01358 0.32375,1.8764 0.148497,0.86281 0.295475,1.71151 0.326619,1.88597 0.03114,0.17448 0.05663,0.34339 0.05663,0.37534 0,0.0384 -0.0717,0.14748 -0.21165,0.32191 -0.116408,0.14508 -0.232608,0.28209 -0.258223,0.30444 -0.06015,0.0526 -0.171051,0.0533 -0.190995,0.002 z m 0.329294,-0.52742 0.09777,-0.12518 -0.137991,-0.79864 c -0.205012,-1.18652 -0.213327,-1.23224 -0.222459,-1.22311 -0.0046,0.004 0.0225,0.48375 0.06028,1.06472 0.03778,0.58098 0.0688,1.09031 0.06893,1.13185 8.8e-5,0.0416 0.0082,0.0756 0.01797,0.0756 0.0098,0 0.06173,-0.0564 0.115505,-0.12517 z m -1.674596,-4.90466 c -0.02622,-0.51748 -0.133402,-0.86296 -0.308407,-0.99416 -0.113784,-0.0854 -0.291485,-0.1204 -0.444016,-0.0877 -0.317046,0.068 -0.462809,0.38594 -0.508471,1.1091 l -0.01651,0.26146 h 0.646018 0.646016 z"
       id="path17165"
       inkscape:export-filename="../c32289ce/iconstop.png"
       inkscape:export-xdpi="96"
       inkscape:export-ydpi="96" /><path
       style="fill:#ffffff;fill-opacity:1;stroke-width:0.0209974"
       d="m 49.47195,162.15459 c -0.24482,-0.0365 -0.475691,-0.21571 -0.588931,-0.45732 l -0.05626,-0.12007 -0.01049,-1.6853 -0.01051,-1.6853 -0.08398,0.0574 c -0.120857,0.0825 -0.226809,0.0789 -0.306611,-0.0103 -0.06569,-0.0736 -0.0768,-0.15152 -0.03284,-0.23068 0.01459,-0.0263 0.293924,-0.23964 0.620752,-0.47416 l 0.594236,-0.4264 -0.0012,-0.72269 c -0.0015,-0.80971 0.0035,-0.84657 0.123226,-0.9064 0.06213,-0.031 0.134465,-0.0368 0.467866,-0.0368 0.426293,-4e-5 0.51215,0.0164 0.564564,0.10842 0.01836,0.0322 0.03154,0.15933 0.03844,0.37117 l 0.01049,0.32213 0.503938,-0.36321 c 0.567024,-0.40869 0.623981,-0.44316 0.701662,-0.42466 0.06664,0.0158 -0.02711,-0.0511 1.890352,1.34822 0.871282,0.6358 1.596139,1.17761 1.610807,1.20403 0.0441,0.0794 0.0331,0.15736 -0.03264,0.23097 -0.08066,0.0902 -0.192808,0.0942 -0.302212,0.0108 -0.04129,-0.0314 -0.08021,-0.0573 -0.08638,-0.0573 -0.0063,0 -0.01391,0.75847 -0.01718,1.68551 l -0.0054,1.68551 -0.06874,0.13962 c -0.08521,0.17296 -0.251091,0.33063 -0.41951,0.39865 l -0.12067,0.0487 -2.435701,0.003 c -1.339632,0.002 -2.485513,-0.004 -2.546397,-0.0136 z m 1.318053,-1.49716 v -1.09824 l 0.05924,-0.0933 c 0.08695,-0.13701 0.317131,-0.33813 0.475238,-0.41521 0.207617,-0.10118 0.383866,-0.13614 0.620382,-0.12283 0.384361,0.0216 0.664309,0.17391 0.927064,0.50433 l 0.08081,0.10158 v 1.11098 1.11097 h 0.693586 c 0.74359,0 0.78503,-0.005 0.898679,-0.11123 0.113296,-0.10579 0.108594,-0.0201 0.107631,-1.96121 l -9.99e-4,-1.80157 -1.327189,-0.96588 c -0.729953,-0.53124 -1.34136,-0.96509 -1.358684,-0.96413 -0.01733,10e-4 -0.638583,0.43859 -1.380579,0.97249 l -1.349083,0.97075 v 1.79495 c 0,1.93334 -0.0046,1.84889 0.108393,1.95446 0.111396,0.10402 0.153401,0.10967 0.820744,0.11055 l 0.624673,8e-4 z m 1.742781,0.0528 v -1.0454 l -0.09974,-0.0976 c -0.05486,-0.0536 -0.151706,-0.12418 -0.215223,-0.15668 -0.105952,-0.0542 -0.134553,-0.0591 -0.346458,-0.0591 -0.213045,0 -0.239741,0.004 -0.343993,0.0595 -0.06217,0.0327 -0.159016,0.10253 -0.215223,0.15511 l -0.102202,0.0956 v 1.04699 1.047 h 0.661418 0.661419 z m -2.272967,-4.06494 0.110236,-0.0795 v -0.34467 -0.34466 h -0.178477 -0.178478 v 0.47493 0.47494 l 0.06824,-0.0506 c 0.03753,-0.0279 0.117848,-0.0865 0.178478,-0.13027 z"
       id="path17167" /><path
       style="fill:#ffffff;fill-opacity:1;stroke:url(#linearGradient13028);stroke-width:0.0886402;stroke-linecap:round;stroke-linejoin:round;stroke-dasharray:none"
       d="m 68.837362,162.17546 c -0.25859,0.0668 -0.48147,0.0211 -1.141,-0.23409 -0.21303,-0.0824 -0.43683,-0.16047 -0.49733,-0.17344 -0.17891,-0.0383 -0.2317,-0.0255 -0.746492,0.17869 -0.721026,0.28627 -1.042205,0.3403 -1.310292,0.22048 -0.254597,-0.11377 -0.38134,-0.35237 -0.410587,-0.7729 -0.0413,-0.59343 0.108928,-1.27451 0.382409,-1.73375 0.29614,-0.49728 0.809346,-0.85875 1.387459,-0.97715 0.623083,-0.12766 1.304893,-0.0104 1.780233,0.30573 0.29791,0.19822 0.4913,0.40338 0.67017,0.71088 0.23262,0.4008 0.34305,0.79715 0.37612,1.35598 0.0383,0.64637 -0.128,1.02583 -0.49067,1.11955 z m 0.14917,-0.40931 c 0.0263,-0.0504 0.0577,-0.13883 0.0699,-0.19637 0.0671,-0.31705 0.0156,-0.89312 -0.1181,-1.3207 -0.0566,-0.18076 -0.29146,-0.59902 -0.40756,-0.72475 -0.50501,-0.54975 -1.22313,-0.75698 -2.026839,-0.58489 -0.174634,0.0375 -0.23268,0.0598 -0.436928,0.16805 -0.362059,0.19211 -0.582995,0.40691 -0.772425,0.75131 -0.04784,0.0871 -0.09959,0.17889 -0.114943,0.20424 -0.03889,0.0642 -0.180759,0.56251 -0.166939,0.58645 0.0065,0.0117 9.99e-4,0.0552 -0.01177,0.0987 -0.0127,0.0435 -0.02521,0.17237 -0.02781,0.28625 -0.0027,0.11387 -0.0056,0.22287 -0.0067,0.24216 -0.0042,0.0726 0.01575,0.23259 0.04053,0.32745 0.05604,0.21403 0.178118,0.3437 0.344018,0.36504 0.214129,0.0277 0.453958,-0.0325 1.012787,-0.25377 0.453909,-0.17967 0.525529,-0.20243 0.666779,-0.21098 0.15647,-0.009 0.2997,0.0295 0.73544,0.20044 0.47474,0.18626 0.7228,0.25307 0.9,0.2424 0.17134,-0.0104 0.2564,-0.0584 0.31974,-0.18157 z m -3.584996,-0.78265 c -0.07311,-0.0237 -0.0973,-0.0919 -0.07639,-0.21514 0.0282,-0.1658 0.09194,-0.34044 0.132822,-0.36404 0.04244,-0.0244 0.136161,-0.002 0.158878,0.0362 0.0163,0.0283 -7.59e-4,0.16582 -0.04223,0.34106 -0.01243,0.0525 -0.01884,0.10199 -0.01419,0.11007 0.0046,0.008 0.0034,0.0185 -0.0032,0.0239 -0.08722,0.0693 -0.114654,0.0813 -0.155701,0.0679 z m 1.497606,-1.45854 c -0.20803,0.009 -0.40479,0.0711 -0.623203,0.19477 -0.212959,0.11993 -0.317392,0.21589 -0.43319,0.39387 -0.0787,0.12098 -0.09854,0.14081 -0.150755,0.15085 -0.07209,0.0137 -0.13893,-0.033 -0.141008,-0.0987 -0.002,-0.0624 0.209076,-0.3591 0.337297,-0.47407 0.115829,-0.10405 0.391721,-0.2691 0.511677,-0.30598 0.215573,-0.0672 0.320772,-0.0896 0.471212,-0.10118 0.17378,-0.0131 0.22692,-0.002 0.25674,0.0486 0.0212,0.0369 -0.007,0.15793 -0.04,0.17396 -0.0126,0.006 -0.0975,0.0145 -0.18839,0.0184 z m 3.07297,0.0298 c -0.19388,0.0612 -0.39,0.0378 -0.55464,-0.0656 -0.0866,-0.0545 -0.10445,-0.0764 -0.20225,-0.24683 -0.0997,-0.17369 -0.10876,-0.19887 -0.12724,-0.35297 -0.0425,-0.35293 0.0556,-0.75103 0.26125,-1.06039 0.13417,-0.20188 0.24308,-0.30958 0.41102,-0.40654 0.16027,-0.0926 0.29029,-0.12452 0.44536,-0.10939 0.40839,0.0399 0.6574,0.44694 0.61339,1.00297 -0.0321,0.40438 -0.25739,0.84523 -0.54983,1.07557 -0.13041,0.10259 -0.16438,0.12138 -0.29735,0.16261 z m 0.2078,-0.4151 c 0.37746,-0.37624 0.50714,-0.9974 0.29203,-1.39876 -0.0497,-0.0916 -0.1776,-0.19685 -0.21456,-0.1755 -0.0131,0.008 -0.0268,0.006 -0.0318,-0.002 -0.014,-0.0242 -0.18433,-0.003 -0.27549,0.0325 -0.18256,0.0733 -0.41113,0.33502 -0.51699,0.59159 -0.17956,0.43518 -0.12342,0.93538 0.12303,1.09589 0.17004,0.11086 0.42837,0.0514 0.62378,-0.14342 z m -2.02983,-0.98828 c -0.20986,0.0405 -0.37515,0.002 -0.56376,-0.12845 -0.0969,-0.0675 -0.13002,-0.10446 -0.22098,-0.24698 -0.13381,-0.2095 -0.19537,-0.4088 -0.21398,-0.69212 -0.0547,-0.83086 0.46437,-1.65263 1.06409,-1.6848 0.11823,-0.006 0.3296,0.0461 0.4188,0.10394 0.25037,0.1621 0.4317,0.50472 0.47591,0.89894 0.0455,0.4058 -0.0748,0.90875 -0.29837,1.24805 -0.16726,0.25385 -0.43676,0.45811 -0.66177,0.50151 z m 0.26017,-0.41325 c 0.45202,-0.40655 0.60191,-1.24834 0.31443,-1.76636 -0.0965,-0.1723 -0.20022,-0.26717 -0.3353,-0.30364 -0.16581,-0.0447 -0.21339,-0.036 -0.40347,0.0741 -0.14778,0.0856 -0.18118,0.11364 -0.26039,0.21549 -0.3647,0.47213 -0.44132,1.19716 -0.17481,1.65383 0.12634,0.2167 0.27228,0.31118 0.46682,0.30252 0.15961,-0.006 0.25001,-0.0475 0.39267,-0.17591 z m -4.339063,1.91865 c -0.26149,0.0448 -0.554676,-0.0768 -0.781833,-0.32436 -0.16336,-0.17797 -0.322982,-0.49468 -0.371494,-0.73702 -0.0206,-0.1027 -0.03829,-0.24528 -0.03933,-0.31683 -0.0028,-0.18092 0.08147,-0.48292 0.172005,-0.61701 0.06519,-0.0967 0.09074,-0.11863 0.234454,-0.2016 0.145485,-0.084 0.17242,-0.0936 0.276247,-0.095 0.234286,-0.003 0.476255,0.1057 0.674997,0.30598 0.134709,0.13573 0.312475,0.45355 0.367515,0.6575 0.0716,0.26377 0.07582,0.49704 0.01318,0.72984 -0.07253,0.26969 -0.152322,0.38959 -0.334422,0.50262 -0.08366,0.0514 -0.162565,0.0879 -0.21161,0.0963 z m 0.221086,-0.43711 c 0.272955,-0.40025 0.05989,-1.2127 -0.395391,-1.50763 -0.379021,-0.24554 -0.733549,-0.0224 -0.765392,0.48165 -0.03445,0.54518 0.284511,1.08836 0.706013,1.20191 0.188962,0.051 0.340019,-0.008 0.454951,-0.17604 z m 1.56497,-1.02283 c -0.32519,0.0549 -0.632051,-0.0788 -0.88992,-0.38726 -0.495073,-0.59235 -0.52635,-1.58666 -0.06642,-2.11164 0.06926,-0.0789 0.110938,-0.10917 0.234227,-0.17046 0.164031,-0.0811 0.22655,-0.0944 0.372815,-0.0784 0.26067,0.0287 0.494826,0.15619 0.676627,0.36849 0.191102,0.22307 0.356922,0.6161 0.393842,0.93018 0.03165,0.27277 0.02224,0.41238 -0.04545,0.67271 -0.05265,0.20259 -0.08126,0.27021 -0.17099,0.40413 -0.101455,0.15141 -0.117131,0.16664 -0.268492,0.26024 -0.105832,0.0655 -0.186097,0.10447 -0.236152,0.11225 z m 0.237762,-0.42538 c 0.244065,-0.27699 0.316791,-0.74436 0.192154,-1.23466 -0.02974,-0.11704 -0.06589,-0.2003 -0.151457,-0.34916 -0.10746,-0.18685 -0.172901,-0.26509 -0.334178,-0.39922 -0.05107,-0.0424 -0.335823,-0.12033 -0.403692,-0.1103 -0.02603,0.003 -0.105958,0.0393 -0.177046,0.0789 -0.181464,0.10179 -0.279219,0.24723 -0.351397,0.52682 -0.110017,0.42616 -0.03866,0.86319 0.202832,1.24219 0.300912,0.47232 0.731798,0.57573 1.022741,0.2455 z"
       id="path17169"
       sodipodi:nodetypes="csssssssscsscsssssssssssssssssccsssssscssscsssssscssscsssssssssssssssssssssssssssscssssssssssssssssssssscssssssssccsscsscsssssssssssss" /><path
       style="fill:url(#linearGradient13028);stroke-width:0;stroke-dasharray:none"
       d="m 81.702884,162.40154 c -0.38895,-0.0231 -0.77897,-0.10397 -1.20309,-0.2495 -0.17225,-0.0591 -0.42175,-0.15814 -0.57742,-0.22921 -0.14358,-0.0656 -0.46481,-0.23034 -0.55643,-0.28546 -0.17293,-0.10402 -0.58635,-0.47371 -0.77809,-0.69578 -0.27998,-0.32426 -0.46758,-0.6714 -0.56408,-1.04377 -0.06,-0.23148 -0.085,-0.41956 -0.0918,-0.68663 -0.0121,-0.48828 0.069,-0.97924 0.23789,-1.44134 0.0471,-0.12881 0.16979,-0.39247 0.26135,-0.56157 l 0.0587,-0.10844 -0.0426,-0.0635 c -0.17756,-0.26439 -0.23404,-0.59967 -0.1534,-0.91069 0.10169,-0.39206 0.41722,-0.70518 0.81168,-0.80533 0.34818,-0.0884 0.71651,-0.007 0.9905,0.22036 0.025,0.0208 0.0491,0.0378 0.0532,0.0378 0.004,0 0.0505,-0.0189 0.10283,-0.042 0.24902,-0.10998 0.53507,-0.19837 0.81006,-0.2503 0.73541,-0.13886 1.50692,-0.0524 2.19039,0.24544 l 0.0855,0.0373 0.0437,-0.0356 c 0.1409,-0.1149 0.32029,-0.19651 0.51238,-0.23308 0.0949,-0.0182 0.28688,-0.0184 0.38457,-4e-4 0.23632,0.0432 0.43375,0.14685 0.60418,0.31737 0.17198,0.17209 0.27458,0.36858 0.31638,0.60597 0.0181,0.10239 0.0182,0.27802 1.4e-4,0.3789 -0.025,0.14074 -0.0841,0.29413 -0.15671,0.40666 l -0.0331,0.0512 0.0543,0.10118 c 0.0596,0.11105 0.11131,0.21763 0.1948,0.40152 0.22219,0.48945 0.33932,1.08783 0.32424,1.65657 -0.0114,0.4324 -0.0915,0.784 -0.25561,1.12335 -0.14864,0.30725 -0.30244,0.51613 -0.59691,0.81068 -0.31113,0.31118 -0.46681,0.43103 -0.82855,0.63781 -0.59059,0.33761 -1.19209,0.54239 -1.76165,0.59976 -0.0898,0.0102 -0.35686,0.0157 -0.43748,0.011 z m 0.28001,-0.35478 c 0.37923,-0.022 0.71774,-0.10179 1.13398,-0.26754 0.35017,-0.13938 0.88428,-0.43453 1.01585,-0.56131 0.0194,-0.0188 0.0774,-0.0693 0.12889,-0.11223 0.13267,-0.11078 0.36132,-0.3416 0.45666,-0.46094 0.27778,-0.34774 0.43256,-0.7057 0.48847,-1.12961 0.0622,-0.47219 0.002,-1.03782 -0.16352,-1.53348 -0.0872,-0.26075 -0.30333,-0.70278 -0.43875,-0.89674 l -0.0418,-0.0599 0.0593,-0.0573 c 0.10169,-0.0982 0.16864,-0.20827 0.21074,-0.34626 0.0199,-0.0651 0.0215,-0.0805 0.0215,-0.20703 1.5e-4,-0.1563 -0.0102,-0.20821 -0.0645,-0.32401 -0.0801,-0.17095 -0.19716,-0.29038 -0.36423,-0.37165 -0.12411,-0.0603 -0.18612,-0.0737 -0.33984,-0.0733 -0.10704,2.6e-4 -0.13921,0.003 -0.1897,0.0173 -0.16967,0.047 -0.32531,0.15295 -0.42808,0.29158 -0.022,0.0296 -0.0411,0.0539 -0.0428,0.0539 -0.001,0 -0.0543,-0.0262 -0.11716,-0.0581 -0.39223,-0.19956 -0.80246,-0.31865 -1.24171,-0.36047 -0.16605,-0.0158 -0.54826,-0.0116 -0.69946,0.008 -0.45605,0.0579 -0.88081,0.1953 -1.2625,0.40817 l -0.0479,0.0266 -0.0198,-0.0334 c -0.0885,-0.14948 -0.27543,-0.28637 -0.45847,-0.33576 -0.0574,-0.0155 -0.0843,-0.0179 -0.19921,-0.0175 -0.1215,4e-4 -0.1388,0.003 -0.20312,0.0217 -0.2889,0.0875 -0.4901,0.3074 -0.55172,0.60273 -0.006,0.0258 -0.0102,0.0891 -0.0102,0.14063 0,0.0973 0.009,0.15195 0.0358,0.23825 0.0389,0.12194 0.12924,0.26066 0.21909,0.33661 0.0268,0.0226 0.0538,0.0457 0.0598,0.051 0.0102,0.009 0.005,0.0192 -0.0286,0.0708 -0.0967,0.14856 -0.26469,0.4668 -0.34954,0.66191 -0.1077,0.24767 -0.20635,0.62957 -0.24232,0.93806 -0.0592,0.50844 -0.0139,0.95882 0.13465,1.33588 0.11008,0.27939 0.25641,0.50335 0.49989,0.76508 0.17846,0.19184 0.49999,0.46514 0.64679,0.54979 0.10242,0.0591 0.41824,0.21751 0.53902,0.2704 0.57429,0.25159 1.12484,0.39674 1.58589,0.41814 0.0687,0.003 0.12675,0.007 0.1289,0.007 0.002,4e-4 0.0648,-0.003 0.13942,-0.007 z m -1.16672,-1.69906 c -0.12122,-0.0221 -0.30804,-0.091 -0.36233,-0.13365 -0.0674,-0.0529 -0.0736,-0.0614 -0.0769,-0.10512 -0.003,-0.0329 4e-4,-0.0479 0.0129,-0.0677 0.0206,-0.0327 0.0597,-0.0566 0.0931,-0.0566 0.027,-2e-5 0.0334,0.003 0.13789,0.0494 0.13965,0.0631 0.24144,0.0858 0.38281,0.0851 0.25635,-8e-4 0.49494,-0.11224 0.65791,-0.30668 l 0.049,-0.0584 -0.0526,-0.0163 c -0.17621,-0.0544 -0.31326,-0.18896 -0.37343,-0.36662 -0.0278,-0.0821 -0.0352,-0.21695 -0.0163,-0.29127 0.0577,-0.22496 0.26832,-0.34096 0.59422,-0.32732 0.18738,0.008 0.31138,0.0501 0.40564,0.13828 0.0907,0.0848 0.12694,0.18399 0.11987,0.32804 -0.009,0.17135 -0.0813,0.31404 -0.2152,0.42153 -0.0537,0.0431 -0.13978,0.0868 -0.20038,0.10159 -0.0641,0.0157 -0.0615,0.0134 -0.0426,0.0399 0.0664,0.0931 0.18952,0.19325 0.30819,0.25046 0.22304,0.10754 0.4624,0.11809 0.68981,0.0304 0.0336,-0.0129 0.0782,-0.0346 0.0995,-0.0481 0.0478,-0.0304 0.0914,-0.0361 0.12841,-0.017 0.0715,0.0371 0.0838,0.13142 0.0244,0.18523 -0.009,0.009 -0.0165,0.0198 -0.0165,0.0258 0,0.0243 -0.20052,0.10483 -0.33077,0.13296 -0.0924,0.0199 -0.34225,0.0194 -0.43451,-8e-4 -0.20249,-0.0445 -0.38525,-0.13787 -0.52245,-0.26694 -0.0341,-0.0321 -0.0637,-0.0584 -0.0656,-0.0584 -0.002,0 -0.0272,0.022 -0.0563,0.0488 -0.14611,0.13515 -0.32956,0.23079 -0.52844,0.27548 -0.0819,0.0184 -0.32538,0.0229 -0.40955,0.008 z m -0.43897,-2.04205 c -0.16359,-0.0469 -0.28366,-0.20547 -0.28366,-0.37486 0,-0.16095 0.10078,-0.30533 0.25498,-0.36548 0.072,-0.0281 0.19236,-0.0297 0.26392,-0.004 0.15899,0.0579 0.26356,0.2075 0.26188,0.37459 -0.001,0.17174 -0.12567,0.32886 -0.29402,0.3727 -0.0587,0.0152 -0.1429,0.0139 -0.2031,-0.003 z m 2.65463,0.003 c -0.16918,-0.0454 -0.28994,-0.20305 -0.28994,-0.37826 0,-0.10674 0.0378,-0.19568 0.11633,-0.27408 0.22619,-0.22569 0.60456,-0.10077 0.65847,0.21744 0.0322,0.19019 -0.0975,0.38428 -0.29145,0.4359 -0.0531,0.0141 -0.1389,0.0138 -0.19341,-8e-4 z"
       id="path17171" /><path
       style="fill:url(#linearGradient13028);stroke:url(#linearGradient13028);stroke-width:0.173567;stroke-linecap:round;stroke-linejoin:round;stroke-dasharray:none"
       d="m 108.53395,159.94954 -0.008,-0.26646 c -0.0149,-0.47811 0.0874,-0.99368 0.27812,-1.40185 0.35741,-0.76479 0.97813,-1.25575 1.81779,-1.43774 0.18216,-0.0395 0.27511,-0.0461 0.65783,-0.0461 0.38273,0 0.47568,0.007 0.65785,0.0461 0.51033,0.1106 0.91276,0.31711 1.25479,0.64389 0.39224,0.37473 0.65741,0.86702 0.78654,1.46017 0.0393,0.18038 0.0461,0.27476 0.0461,0.64655 1.6e-4,0.40094 -0.004,0.45417 -0.0558,0.67372 -0.0431,0.18289 -0.0677,0.2486 -0.10614,0.28223 -0.11108,0.0972 -0.53152,0.23932 -0.97405,0.32917 -0.13532,0.0274 -0.24863,0.0528 -0.25179,0.0562 -0.004,0.004 0.0399,0.24408 0.0956,0.53482 0.13616,0.71035 0.13256,0.87321 -0.0265,1.20235 -0.0849,0.17571 -0.33095,0.42586 -0.50513,0.51366 -0.25899,0.13053 -0.31716,0.13933 -0.92141,0.13933 -0.60189,0 -0.66332,-0.009 -0.91527,-0.13633 -0.16066,-0.0811 -0.37491,-0.28584 -0.47444,-0.4534 -0.0972,-0.16359 -0.1651,-0.41085 -0.1649,-0.60038 7e-5,-0.0786 0.0438,-0.36045 0.10312,-0.66403 0.0566,-0.29009 0.0996,-0.53075 0.0956,-0.53482 -0.004,-0.004 -0.1181,-0.0299 -0.25342,-0.0573 -0.28134,-0.0572 -0.57793,-0.13985 -0.70902,-0.19778 l -0.0898,-0.0396 c -0.3274,-0.10883 -0.33396,-0.59052 -0.33724,-0.69221 z m 3.43824,3.16152 c 0.42371,-0.15486 0.69799,-0.54003 0.6951,-0.9761 -8e-4,-0.10758 -0.0545,-0.43355 -0.17128,-1.03712 l -0.1702,-0.88023 -0.0723,-0.0169 c -0.12604,-0.0294 -1.37604,-0.0431 -1.69747,-0.0188 -0.16413,0.0125 -0.30296,0.0272 -0.30852,0.0329 -0.006,0.006 -0.0366,0.14335 -0.0687,0.30621 -0.30615,1.5466 -0.31815,1.63419 -0.25651,1.87087 0.0472,0.18104 0.12796,0.31648 0.27889,0.46747 0.26874,0.26881 0.43117,0.31195 1.14043,0.30295 0.45949,-0.006 0.5196,-0.0107 0.63061,-0.0514 z m -0.25745,-0.45927 c -0.0293,-0.0549 0.004,-0.11554 0.0717,-0.13267 0.0652,-0.0163 0.1913,-0.12568 0.22707,-0.1969 0.0588,-0.11716 0.054,-0.18639 -0.0502,-0.72713 -0.0569,-0.29484 -0.10337,-0.5552 -0.10337,-0.57854 0,-0.0233 0.0198,-0.053 0.0439,-0.0661 0.0846,-0.0453 0.10828,0.0182 0.21512,0.58037 0.055,0.28996 0.0991,0.5725 0.0979,0.62788 -0.004,0.19568 -0.14684,0.41196 -0.32593,0.49505 -0.10694,0.0496 -0.1488,0.0491 -0.1762,-0.003 z m -1.70056,-2.14627 c 0.0261,-0.1429 0.0425,-0.26507 0.0359,-0.27148 -0.035,-0.035 -0.85628,0.13684 -1.03639,0.21681 l -0.0873,0.0387 0.083,0.0356 c 0.15344,0.066 0.79052,0.23004 0.92423,0.23816 0.0259,0.002 0.0427,-0.0523 0.0805,-0.25783 z m 2.8271,0.21744 c 0.25714,-0.0518 0.47521,-0.11123 0.66415,-0.18115 l 0.14262,-0.0528 -0.10118,-0.0398 c -0.21749,-0.0858 -1.00419,-0.24919 -1.03773,-0.21567 -0.0167,0.0169 0.084,0.53181 0.10409,0.53183 0.009,1e-5 0.11223,-0.019 0.22804,-0.0425 z m -3.68442,-0.49303 c 0.45896,-0.13596 1.04758,-0.20738 1.85305,-0.22485 1.07798,-0.0232 1.9857,0.0745 2.54922,0.2749 0.11585,0.0412 0.21454,0.0711 0.21932,0.0663 0.005,-0.005 0.025,-0.0827 0.0451,-0.17309 0.0527,-0.23783 0.052,-0.92295 -8e-4,-1.16935 -0.24547,-1.13928 -0.97922,-1.85754 -2.06624,-2.02262 -0.25234,-0.0383 -0.70126,-0.0383 -0.9536,0 -0.65567,0.0995 -1.19259,0.4048 -1.56261,0.88829 -0.27308,0.35682 -0.43874,0.76527 -0.53218,1.31209 -0.0459,0.26879 -0.003,0.96615 0.0731,1.16466 0.007,0.0202 0.0291,0.0169 0.0905,-0.0145 0.0442,-0.0226 0.17269,-0.0683 0.28544,-0.1018 z m 3.89971,-0.69625 c -0.02,-0.02 -0.0334,-0.10377 -0.0421,-0.2643 -0.0151,-0.27788 -0.0834,-0.56687 -0.18701,-0.79103 -0.0928,-0.20088 -0.15365,-0.28481 -0.31971,-0.44113 -0.10678,-0.10047 -0.13163,-0.13526 -0.12089,-0.16912 0.034,-0.10696 0.14528,-0.0593 0.33158,0.14191 0.27797,0.30023 0.46757,0.85146 0.46799,1.3605 1e-4,0.12673 -0.006,0.15284 -0.0399,0.17103 -0.0513,0.0274 -0.0549,0.0272 -0.0899,-0.007 z m -5.48372,-1.42593 c -0.0492,-0.0492 -0.0244,-0.11183 0.0892,-0.22394 l 0.11407,-0.11266 -0.11407,-0.11528 c -0.1219,-0.12318 -0.14301,-0.19039 -0.0718,-0.22853 0.0369,-0.0197 0.0587,-0.007 0.17074,0.10149 l 0.12845,0.12414 0.12807,-0.123 c 0.12691,-0.12185 0.17481,-0.13772 0.21939,-0.0727 0.0289,0.0423 0.0154,0.068 -0.0981,0.18715 -0.0627,0.0659 -0.11402,0.12589 -0.11402,0.13355 0,0.007 0.0513,0.0646 0.11402,0.12651 0.12134,0.11982 0.13942,0.17152 0.0726,0.2073 -0.0536,0.0286 -0.0876,0.009 -0.21626,-0.12218 l -0.10225,-0.10458 -0.12071,0.12374 c -0.12346,0.12655 -0.15563,0.14251 -0.19927,0.0989 z m 0.96896,-1.44634 c -0.17786,-0.094 -0.28347,-0.28862 -0.25608,-0.47179 0.0382,-0.25534 0.31033,-0.4416 0.55239,-0.37807 0.42343,0.11116 0.47313,0.69156 0.0735,0.85849 -0.10482,0.0439 -0.27834,0.0397 -0.36984,-0.008 z m 0.39987,-0.20315 c 0.0551,-0.0552 0.0664,-0.0838 0.0741,-0.19031 0.008,-0.12288 0.007,-0.12691 -0.0722,-0.20657 -0.10593,-0.10592 -0.19626,-0.12437 -0.32664,-0.0667 -0.0787,0.0348 -0.10397,0.0601 -0.1388,0.13877 -0.0577,0.1304 -0.0393,0.22074 0.0667,0.32665 0.0796,0.0796 0.0837,0.0811 0.2066,0.0722 0.1065,-0.007 0.1351,-0.0189 0.1903,-0.0741 z m 4.3404,0.149 c -0.0222,-0.0578 -0.0147,-0.0718 0.10527,-0.1975 l 0.11784,-0.12354 -0.11784,-0.11909 c -0.11935,-0.1206 -0.13795,-0.16204 -0.0929,-0.20702 0.0436,-0.0436 0.0789,-0.0277 0.2047,0.0923 l 0.12283,0.11717 0.12286,-0.11717 c 0.12572,-0.11993 0.1611,-0.13589 0.20469,-0.0923 0.0451,0.0451 0.0263,0.0879 -0.0921,0.2101 l -0.11692,0.12072 0.11873,0.11997 c 0.0895,0.0905 0.11699,0.13215 0.11173,0.16938 -0.005,0.0337 -0.0228,0.0517 -0.0565,0.0565 -0.0373,0.005 -0.0792,-0.0226 -0.17102,-0.11337 l -0.12162,-0.12035 -0.1198,0.11854 c -0.12074,0.11949 -0.19585,0.14876 -0.22003,0.0858 z m -1.0486,-0.21504 c -0.003,0.0125 -0.004,-0.096 0.0647,-0.29542 0.0476,-0.14017 0.0954,-0.26652 0.10642,-0.28077 0.0279,-0.036 0.0874,-0.0323 0.12045,0.007 0.0234,0.0284 0.0143,0.073 -0.0617,0.29849 -0.0491,0.14584 -0.0996,0.27545 -0.11217,0.288 -0.0356,0.0356 -0.0954,0.003 -0.11771,-0.0177 z m -1.29267,-0.13914 c -0.007,-0.007 -0.0138,-0.0915 -0.0138,-0.18657 v -0.17275 h -0.16436 c -0.16504,0 -0.22952,-0.0254 -0.22952,-0.0907 0,-0.0572 0.053,-0.0753 0.22182,-0.0753 h 0.17206 v -0.17206 c 0,-0.17707 0.0175,-0.22182 0.0864,-0.22182 0.0571,0 0.0794,0.0668 0.0794,0.23622 v 0.15603 l 0.18138,0.006 c 0.17466,0.006 0.18166,0.007 0.18854,0.0566 0.0109,0.0775 -0.0461,0.10481 -0.21841,0.10481 h -0.15151 v 0.14648 c 0,0.0805 -0.0102,0.16451 -0.0215,0.18656 -0.0206,0.0385 -0.1019,0.0549 -0.13057,0.0262 z m 4.12783,3.05747 c -0.0153,-0.0153 -0.0248,-0.0908 -0.0248,-0.19694 v -0.17204 h -0.17548 c -0.15659,0 -0.17796,-0.005 -0.1986,-0.0432 -0.0185,-0.0344 -0.0158,-0.0513 0.0129,-0.0829 0.0296,-0.0328 0.0646,-0.0397 0.19775,-0.0397 h 0.16179 l 0.006,-0.16884 c 0.005,-0.13395 0.0136,-0.17355 0.0424,-0.19166 0.0263,-0.0166 0.0462,-0.0166 0.0726,0 0.0288,0.0181 0.0375,0.0578 0.0424,0.19166 l 0.006,0.16884 h 0.16382 c 0.14423,0 0.16757,0.005 0.19511,0.0446 0.0226,0.0322 0.0255,0.0553 0.0108,0.0829 -0.0175,0.0326 -0.0467,0.0383 -0.19596,0.0383 h -0.17547 v 0.17205 c 0,0.17474 -0.0175,0.22182 -0.083,0.22182 -0.0182,0 -0.0443,-0.0112 -0.058,-0.0248 z m -5.08895,-3.98169 c -0.0483,-0.0642 -0.44354,-0.93333 -0.43776,-0.96279 0.0102,-0.0497 0.0728,-0.0828 0.11077,-0.058 0.0322,0.0209 0.46582,0.92574 0.46582,0.97192 0,0.0644 -0.10057,0.0998 -0.13883,0.049 z m 2.38804,-0.0556 c -0.23549,-0.0573 -0.39162,-0.2875 -0.35242,-0.51951 0.0204,-0.12122 0.12778,-0.26839 0.23842,-0.327 0.13089,-0.0693 0.32968,-0.0597 0.45299,0.0218 0.18012,0.1192 0.25567,0.34633 0.18059,0.54292 -0.049,0.12822 -0.19114,0.25028 -0.32494,0.27896 -0.11352,0.0244 -0.10649,0.0243 -0.19464,0.003 z m 0.25196,-0.19846 c 0.12539,-0.0822 0.16849,-0.27069 0.091,-0.39787 -0.11251,-0.18453 -0.41451,-0.17069 -0.50651,0.0232 -0.0409,0.0862 -0.0423,0.15798 -0.004,0.24806 0.0292,0.0701 0.11424,0.14402 0.18893,0.16435 0.0636,0.0174 0.17495,-8e-4 0.23121,-0.0378 z"
       id="path17173"
       sodipodi:nodetypes="ssssscsscsssssssssssssssccssscsssssssssssssssssssssccssssscsssscsssscssssssccsssssscsssscsssssssscssssssssssssssssscssscssscsssscsssssssssscscssscssscssscsscccscssssccsssssssscssccssssssssssssscssssccscsccccsccccc" /><path
       style="fill:url(#linearGradient13028);stroke-width:0.0114826"
       d="m 93.689733,162.47282 c -0.28171,-0.0417 -0.54703,-0.25334 -0.65716,-0.52438 -0.0667,-0.16415 -0.0634,-0.0322 -0.0633,-2.57739 2.1e-4,-2.521 -0.003,-2.40383 0.0595,-2.55824 0.0823,-0.20515 0.25193,-0.38171 0.45119,-0.46959 0.0314,-0.0139 0.0958,-0.0353 0.14283,-0.0478 0.081,-0.0212 0.12905,-0.0224 0.89318,-0.0224 h 0.8076 l 0.0105,-0.0259 c 0.006,-0.0143 0.0238,-0.0741 0.0401,-0.13321 0.0729,-0.26407 0.23549,-0.50921 0.45168,-0.68106 0.15705,-0.12482 0.31502,-0.20219 0.52966,-0.25939 0.0981,-0.0261 0.13192,-0.0293 0.311,-0.0293 0.17912,0 0.21293,0.004 0.31102,0.0293 0.28034,0.0746 0.48777,0.19528 0.67097,0.39004 0.17575,0.18682 0.27454,0.37599 0.34652,0.66352 l 0.0102,0.0402 0.8378,0.006 c 0.929723,0.007 0.883983,0.004 1.044483,0.0868 0.11071,0.0574 0.137234,0.0771 0.230614,0.17013 0.0921,0.0918 0.16067,0.20528 0.20866,0.34516 l 0.0316,0.0919 v 2.39985 c 0,2.27552 -10e-4,2.40362 -0.0207,2.47255 -0.0823,0.28981 -0.28681,0.50554 -0.570714,0.60211 l -0.10909,0.0371 -2.951013,0.002 c -1.62307,8e-4 -2.9807,-0.003 -3.01698,-0.008 z m 5.986593,-0.45996 c 0.11662,-0.0547 0.19873,-0.14928 0.23551,-0.27127 0.0138,-0.0459 0.0163,-0.26034 0.0159,-1.3568 -2.2e-4,-0.71631 -0.002,-1.30418 -0.004,-1.30635 -0.004,-0.004 -1.772403,-0.006 -2.305073,-0.004 l -0.13323,4e-4 -0.007,0.13493 c -0.0107,0.2158 -0.0628,0.3445 -0.19189,0.47376 -0.15208,0.15232 -0.28802,0.19509 -0.62006,0.19509 -0.24467,0 -0.3479,-0.0171 -0.46126,-0.0766 -0.15042,-0.0789 -0.25542,-0.20124 -0.31611,-0.36844 -0.0217,-0.0595 -0.0296,-0.10971 -0.0347,-0.21807 l -0.007,-0.14072 -0.11021,-4e-4 c -0.54924,-0.002 -2.32431,2.5e-4 -2.32716,0.004 -0.002,0.002 -0.005,0.5874 -0.006,1.30085 -0.003,1.35171 -0.004,1.34141 0.0443,1.43502 0.0501,0.0988 0.16245,0.19164 0.26584,0.21959 0.0419,0.0113 0.66942,0.0139 2.97535,0.0121 l 2.922313,-0.002 z m -2.778363,-2.58233 c 0.0525,-0.0146 0.12136,-0.0841 0.13614,-0.13739 0.0162,-0.0584 0.0147,-0.83608 -0.002,-0.88541 -0.0177,-0.0532 -0.0869,-0.12322 -0.13605,-0.1378 -0.024,-0.007 -0.12727,-0.0105 -0.25372,-0.008 -0.20351,0.004 -0.21516,0.005 -0.25365,0.0314 -0.0222,0.0151 -0.0528,0.0459 -0.068,0.068 l -0.0277,0.0404 -0.004,0.42572 c -0.003,0.27416 8e-4,0.44036 0.009,0.4669 0.0152,0.0521 0.0821,0.12156 0.13027,0.13551 0.0505,0.0146 0.41747,0.0153 0.46939,0.001 z m -1.04346,-0.93265 c 0.004,-0.0788 0.015,-0.16843 0.0257,-0.20381 0.0704,-0.2326 0.259,-0.40434 0.49921,-0.45473 0.13225,-0.0277 0.53967,-0.0175 0.64302,0.0163 0.20719,0.0676 0.36105,0.22193 0.42565,0.42686 0.0155,0.0494 0.0258,0.12213 0.0303,0.21529 l 0.007,0.14066 h 1.22144 1.221453 l -0.004,-0.81239 -0.004,-0.81238 -0.0326,-0.0665 c -0.044,-0.0895 -0.11974,-0.16349 -0.21239,-0.20738 l -0.0766,-0.0362 h -2.933793 -2.93379 l -0.0762,0.0361 c -0.0913,0.0433 -0.16988,0.12029 -0.21373,0.20952 l -0.0316,0.0644 -0.004,0.81238 -0.004,0.81239 h 1.22151 1.22153 z m 1.68541,-2.23668 c 0.0332,-0.0205 -0.0454,-0.19629 -0.14821,-0.33172 -0.0836,-0.10994 -0.18543,-0.19333 -0.31628,-0.25873 -0.15203,-0.076 -0.22434,-0.0923 -0.40891,-0.0923 -0.21128,0 -0.34327,0.0385 -0.50859,0.14821 -0.1628,0.10805 -0.33459,0.33933 -0.36904,0.49679 -0.007,0.0321 -0.004,0.0369 0.0186,0.0407 0.0547,0.009 1.71814,0.006 1.73245,-0.003 z"
       id="path17175" /><path
       style="fill:url(#linearGradient13028);stroke:none;stroke-width:0.105666"
       d="m 126.23182,162.21977 c -0.10584,-0.0583 -0.35623,-0.2158 -0.55643,-0.34983 -1.19294,-0.79868 -2.11427,-1.76243 -2.55264,-2.67017 -0.2527,-0.52323 -0.30285,-0.75259 -0.30209,-1.3815 0,-0.48641 0.0108,-0.56628 0.10687,-0.84424 0.231,-0.66771 0.61222,-1.1197 1.17505,-1.3932 0.32604,-0.15844 0.78607,-0.27732 1.06327,-0.27475 0.29039,0.002 0.75352,0.11149 1.02689,0.24134 l 0.27949,0.13273 0.22545,-0.11046 c 0.3294,-0.16134 0.67497,-0.23834 1.06968,-0.23834 0.67862,0 1.18295,0.20748 1.65176,0.6795 0.50026,0.50372 0.71375,1.05641 0.71294,1.84576 0,0.51934 -0.0893,0.89092 -0.33187,1.38966 -0.47999,0.9867 -1.71904,2.18053 -3.09152,2.97861 -0.21744,0.1265 -0.23866,0.12625 -0.47685,-0.005 z m 0.71541,-0.77893 c 1.08213,-0.72586 1.9428,-1.59188 2.34174,-2.35633 0.73074,-1.40025 0.1842,-2.92203 -1.14934,-3.20012 -0.49443,-0.10314 -1.09774,0.0241 -1.46152,0.30823 -0.13433,0.10495 -0.24488,0.0889 -0.55308,-0.08 -0.47785,-0.26208 -0.92779,-0.33157 -1.38146,-0.2134 -0.68983,0.17968 -1.17165,0.6615 -1.35135,1.35132 -0.0808,0.31023 -0.0731,0.85753 0.0169,1.20967 0.2458,0.96107 1.16307,2.01676 2.59025,2.98112 0.51901,0.35071 0.42432,0.35075 0.94782,0 z m 1.50703,-3.44086 c -0.0614,-0.0411 -0.1169,-0.16249 -0.14473,-0.31702 -0.0331,-0.18356 -0.21533,-0.39432 -0.42717,-0.49389 -0.1582,-0.0744 -0.2493,-0.18955 -0.2493,-0.31521 0,-0.0681 0.18676,-0.22602 0.26729,-0.22602 0.13158,0 0.43072,0.1608 0.58361,0.31367 0.0793,0.0793 0.18833,0.23125 0.24223,0.33763 0.20477,0.40411 0.15736,0.73086 -0.10588,0.7296 -0.0681,0 -0.14283,-0.0132 -0.16605,-0.0288 z"
       id="path1048" /><path
       style="fill:url(#linearGradient13028);stroke:url(#linearGradient13028);stroke-width:0.114;stroke-dasharray:none"
       d="m 159.20189,162.28814 c -0.25495,-0.0779 -1.0284,-0.76778 -1.63398,-1.45756 -0.15206,-0.17321 -0.39314,-0.47011 -0.5108,-0.6291 -0.042,-0.0568 -0.0792,-0.10045 -0.0825,-0.0971 -0.003,0.004 0.0103,0.0819 0.0303,0.17432 0.0895,0.4128 0.13129,0.80719 0.10877,1.02664 -0.058,0.56491 -0.48508,0.92038 -0.98967,0.82368 -0.0463,-0.009 -0.18002,-0.0609 -0.29725,-0.11572 -0.34482,-0.16102 -0.46299,-0.19265 -0.83578,-0.22375 -0.20286,-0.017 -0.33625,-0.0562 -0.45744,-0.13492 -0.33594,-0.218 -0.4524,-0.6474 -0.28639,-1.05597 0.0972,-0.23929 0.36909,-0.59852 0.74681,-0.98687 0.097,-0.0997 0.17377,-0.18397 0.17056,-0.18719 -0.003,-0.004 -0.10172,0.0192 -0.21893,0.0499 -0.277,0.0725 -0.57916,0.13341 -0.80997,0.16313 -0.24965,0.0322 -0.54162,0.0228 -0.68213,-0.0219 -0.31232,-0.0993 -0.51559,-0.28649 -0.59912,-0.55189 -0.0336,-0.10661 -0.0365,-0.13354 -0.03,-0.27711 0.006,-0.13387 0.014,-0.17588 0.0503,-0.26561 0.0237,-0.0586 0.0696,-0.17242 0.10207,-0.25289 0.0937,-0.23244 0.11356,-0.33128 0.12921,-0.64241 0.008,-0.16511 0.0231,-0.31159 0.0367,-0.36239 0.0794,-0.29692 0.29352,-0.50974 0.58791,-0.58423 0.13744,-0.0349 0.4106,-0.0207 0.55232,0.0286 0.24662,0.0857 0.59246,0.31081 1.0036,0.65332 0.0703,0.0585 0.12918,0.10495 0.13096,0.10314 0.002,-0.002 -0.019,-0.0829 -0.0463,-0.1802 -0.11412,-0.40769 -0.19045,-0.90485 -0.17113,-1.11466 0.0226,-0.24603 0.11622,-0.45735 0.27082,-0.61174 0.16431,-0.16406 0.33524,-0.23405 0.57164,-0.23405 0.15052,0 0.22301,0.0175 0.46221,0.11149 0.29856,0.11726 0.36909,0.1309 0.74313,0.1432 0.31161,0.0103 0.33252,0.0128 0.44828,0.053 0.26084,0.0907 0.43951,0.272 0.51901,0.52659 0.0494,0.15822 0.0398,0.42167 -0.0225,0.61529 -0.0672,0.20909 -0.30718,0.63298 -0.50494,0.89199 -0.0271,0.0356 -0.0472,0.0667 -0.0446,0.0693 0.003,0.002 0.0708,-0.0175 0.15144,-0.0446 0.42021,-0.14151 0.73187,-0.19473 0.95341,-0.16285 0.41056,0.0592 0.66931,0.29159 0.73947,0.66442 0.0242,0.12835 0.009,0.25383 -0.0575,0.46465 -0.0937,0.29904 -0.10202,0.36565 -0.0973,0.78383 l 0.004,0.36728 -0.0383,0.0956 c -0.0745,0.18584 -0.1848,0.31256 -0.353,0.40551 -0.14314,0.0791 -0.21501,0.0952 -0.42583,0.0956 -0.18149,0 -0.19991,-0.002 -0.34107,-0.0492 -0.1429,-0.0475 -0.47462,-0.20292 -0.63949,-0.29967 l -0.0781,-0.0459 0.0639,0.0697 c 0.0352,0.0384 0.14708,0.14897 0.2487,0.2459 0.58161,0.55479 1.20947,0.99825 1.74488,1.23242 0.2036,0.089 0.23759,0.12726 0.23759,0.26701 0,0.12394 -0.0468,0.2282 -0.14797,0.32934 -0.12386,0.12381 -0.27626,0.17439 -0.40627,0.13469 z m 0.16711,-0.29927 c 0.0465,-0.0283 0.10646,-0.1097 0.0986,-0.13375 -0.002,-0.007 -0.0583,-0.0368 -0.1243,-0.0657 -0.31224,-0.13749 -0.60285,-0.31737 -1.11483,-0.69006 -0.0973,-0.0709 0.30777,0.3294 0.529,0.52268 0.27465,0.23997 0.48771,0.39467 0.54394,0.39497 0.0117,0 0.0421,-0.0128 0.0676,-0.0281 z m -2.87835,-0.16711 c 0.19437,-0.0868 0.32593,-0.30767 0.34591,-0.5808 0.0222,-0.30293 -0.0864,-0.90614 -0.30451,-1.692 -0.048,-0.17284 -0.0806,-0.31663 -0.0765,-0.33768 0.01,-0.0512 0.081,-0.10737 0.13617,-0.10737 0.0528,4e-5 0.0479,-0.002 0.41,0.25925 0.45419,0.32898 0.88132,0.5793 1.18419,0.69399 0.128,0.0485 0.17937,0.0604 0.28415,0.0663 0.24617,0.0137 0.42255,-0.0676 0.52449,-0.24156 0.0623,-0.10636 0.0762,-0.19504 0.0618,-0.39431 -0.0265,-0.36505 0.001,-0.59324 0.11029,-0.93795 0.0458,-0.14357 0.0512,-0.17574 0.0449,-0.26475 -0.0221,-0.31188 -0.30689,-0.51452 -0.67771,-0.48216 -0.24457,0.0213 -0.56888,0.11494 -1.04205,0.30072 -0.30235,0.11868 -0.35909,0.12792 -0.4151,0.0674 -0.0417,-0.045 -0.0466,-0.12367 -0.0108,-0.17596 0.0132,-0.0194 0.07,-0.0894 0.12621,-0.15594 0.33851,-0.40016 0.63548,-0.8678 0.73097,-1.15109 0.0426,-0.1265 0.0539,-0.33742 0.0235,-0.44175 -0.0458,-0.15741 -0.16002,-0.27946 -0.31992,-0.34171 -0.0697,-0.0271 -0.12068,-0.0328 -0.38586,-0.0418 -0.41114,-0.0143 -0.49746,-0.0326 -0.92912,-0.19768 -0.12669,-0.0485 -0.17288,-0.0593 -0.2558,-0.0602 -0.40277,-0.004 -0.63195,0.35083 -0.56424,0.87379 0.0422,0.32616 0.12225,0.65663 0.27329,1.12868 0.0718,0.22436 0.0982,0.32617 0.0915,0.35294 -0.0151,0.0599 -0.0751,0.10622 -0.13778,0.10622 -0.06,0 -0.044,0.0115 -0.34654,-0.25592 -0.60738,-0.53759 -1.02105,-0.81439 -1.28571,-0.86037 -0.23286,-0.0404 -0.44071,0.024 -0.56383,0.17467 -0.0977,0.11971 -0.11816,0.19626 -0.13327,0.49989 -0.0194,0.38953 -0.0462,0.50704 -0.19806,0.86803 -0.0874,0.20773 -0.10603,0.29996 -0.0846,0.41849 0.0194,0.10726 0.0562,0.17931 0.13477,0.26326 0.0745,0.0797 0.16146,0.12896 0.30241,0.17148 0.095,0.0286 0.12517,0.0308 0.33395,0.0241 0.3899,-0.0128 0.88633,-0.11855 1.5789,-0.33686 0.12467,-0.0392 0.24684,-0.0714 0.27149,-0.0714 0.0869,0 0.15451,0.10148 0.12122,0.18186 -0.009,0.0215 -0.15471,0.1733 -0.32394,0.33722 -0.66605,0.64512 -0.98168,1.0475 -1.05027,1.33891 -0.0511,0.21704 10e-4,0.4102 0.14442,0.54184 0.11052,0.10097 0.19023,0.1265 0.49645,0.15888 0.37272,0.0394 0.44932,0.0611 0.8032,0.22712 0.11334,0.0533 0.22205,0.0999 0.24159,0.10379 0.0818,0.0164 0.26319,0 0.32995,-0.0298 z"
       id="path18717" /><path
       style="fill:url(#linearGradient13028);stroke-width:0.0224768"
       d="m 170.46046,162.29293 c -0.22079,-0.0721 -0.34374,-0.17856 -0.45748,-0.39581 -0.0434,-0.0828 -0.0531,-0.1357 -0.0534,-0.2922 -4.2e-4,-0.17491 0.006,-0.20302 0.0759,-0.33269 0.0851,-0.15773 0.15557,-0.22584 0.32495,-0.31386 0.0979,-0.0509 0.14305,-0.0597 0.30585,-0.0597 0.15673,-4e-5 0.20924,0.0101 0.2922,0.0526 0.17891,0.0932 0.26464,0.17696 0.342,0.33409 0.0637,0.12936 0.0738,0.17318 0.0737,0.31902 -2.6e-4,0.29072 -0.15079,0.52783 -0.41061,0.64679 -0.14815,0.0678 -0.35874,0.0857 -0.49313,0.0417 z m 0.33811,-0.35904 c 0.23094,-0.0965 0.28724,-0.39926 0.10758,-0.57886 -0.14579,-0.1458 -0.35397,-0.1458 -0.49977,0 -0.27797,0.27795 0.0287,0.7307 0.39214,0.57886 z m 2.54373,0.36035 c -0.21246,-0.0701 -0.34178,-0.17495 -0.43981,-0.35677 -0.0697,-0.12921 -0.0763,-0.15811 -0.0763,-0.33255 0,-0.17448 0.007,-0.20334 0.0764,-0.33269 0.0851,-0.15773 0.15558,-0.22584 0.32495,-0.31386 0.0975,-0.0506 0.14349,-0.0597 0.30586,-0.0601 0.17491,-4.3e-4 0.20299,0.006 0.33255,0.0759 0.24544,0.13239 0.37432,0.34925 0.37486,0.63088 5e-4,0.28982 -0.15014,0.52728 -0.41015,0.64631 -0.14607,0.0669 -0.35906,0.0857 -0.48833,0.043 z m 0.33331,-0.36035 c 0.23094,-0.0965 0.28724,-0.39926 0.10758,-0.57886 -0.25254,-0.25254 -0.66635,-0.0264 -0.59988,0.32789 0.0397,0.21162 0.28595,0.33717 0.49225,0.25097 z m -3.44926,-1.26322 c -0.35857,-0.11047 -0.54461,-0.41167 -0.73826,-1.19544 l -0.0958,-0.38772 h -0.57152 -0.57152 l -0.0552,-0.0552 c -0.073,-0.073 -0.073,-0.1763 0,-0.24928 l 0.0552,-0.0552 h 0.52666 0.52664 l -0.0451,-0.17981 -0.0451,-0.17982 h -0.21178 c -0.19487,0 -0.21617,-0.004 -0.26693,-0.0552 -0.073,-0.073 -0.073,-0.1763 0,-0.2493 0.0486,-0.0486 0.0748,-0.0552 0.22219,-0.0552 h 0.16702 l -0.0451,-0.1798 -0.0451,-0.17982 h -0.75122 -0.7512 l -0.0552,-0.0552 c -0.073,-0.073 -0.073,-0.1763 0,-0.2493 l 0.0552,-0.0552 h 0.70677 0.70678 l -0.14234,-0.56327 c -0.14435,-0.57118 -0.22122,-0.78029 -0.33735,-0.91764 -0.1096,-0.1295 -0.15257,-0.13743 -0.7523,-0.13743 h -0.54118 l -0.0552,-0.0552 c -0.0737,-0.0737 -0.073,-0.17628 0.001,-0.25094 l 0.0568,-0.0568 0.58939,0.007 c 0.5578,0.007 0.59534,0.0101 0.70053,0.0585 0.0611,0.0281 0.1432,0.0757 0.18254,0.10571 0.16167,0.1233 0.33885,0.48175 0.43626,0.8826 l 0.0505,0.20791 h 3.04412 3.04412 l 0.0552,0.0552 c 0.0303,0.0303 0.0548,0.0785 0.0545,0.10671 -3.5e-4,0.0284 -0.16664,0.714 -0.36948,1.52362 -0.3057,1.22004 -0.3772,1.47879 -0.41767,1.51157 -0.0459,0.0372 -0.18574,0.0395 -2.31651,0.0395 -1.79915,0 -2.26766,0.006 -2.26765,0.0281 2e-5,0.0502 0.12619,0.29583 0.19213,0.37392 0.12143,0.14393 0.0183,0.13744 2.1907,0.13744 h 1.97971 l 0.0552,0.0551 c 0.0348,0.0348 0.0552,0.0809 0.0552,0.1246 0,0.0438 -0.0203,0.0898 -0.0552,0.1246 l -0.0552,0.0552 -1.99584,-0.001 c -1.66084,-0.001 -2.01331,-0.007 -2.09991,-0.0336 z m 4.38032,-2.48224 0.31471,-1.2587 h -2.84921 -2.84921 l 0.0451,0.17982 0.0451,0.17982 h 0.52644 0.52645 l 0.0552,0.0552 c 0.073,0.073 0.073,0.17631 0,0.24929 -0.0551,0.0551 -0.0554,0.0552 -0.53686,0.0552 h -0.48171 l 0.0451,0.17981 0.0451,0.1798 h 0.34663 c 0.33806,0 0.348,0.001 0.4018,0.0552 0.0348,0.0347 0.0552,0.0809 0.0552,0.12459 0,0.0438 -0.0203,0.0899 -0.0552,0.1246 -0.0531,0.0531 -0.0665,0.0552 -0.35705,0.0552 h -0.30189 l 0.0451,0.17981 0.0451,0.17982 h 0.52645 0.52646 l 0.0552,0.0552 c 0.0348,0.0347 0.0552,0.0809 0.0552,0.1246 0,0.0438 -0.0203,0.0898 -0.0552,0.1246 -0.0551,0.0551 -0.0554,0.0552 -0.53688,0.0552 h -0.48169 l 0.0451,0.17981 0.0451,0.17982 h 2.21962 2.21963 z m -7.49147,0.1246 c -0.0348,-0.0348 -0.0552,-0.0809 -0.0552,-0.1246 0,-0.0438 0.0203,-0.0898 0.0552,-0.1246 l 0.0552,-0.0552 h 0.60891 0.60893 l 0.0552,0.0552 c 0.0348,0.0348 0.0552,0.0809 0.0552,0.1246 0,0.0438 -0.0203,0.0898 -0.0552,0.1246 l -0.0552,0.0552 h -0.60893 -0.60891 z"
       id="path3427" /><g
       id="g7"
       transform="translate(-1.2665)"><path
         id="path17927-6"
         style="fill:url(#linearGradient13028);stroke:url(#linearGradient13028);stroke-width:0.0187382"
         d="m 144.28749,158.31289 c -0.037,0.002 -0.0738,0.004 -0.11006,0.009 -0.30108,0.0439 -0.57411,0.22301 -0.76031,0.49894 -0.40894,0.60604 -0.48155,1.29628 -0.16346,1.5539 0.11548,0.0935 0.18373,0.12264 0.32565,0.13889 0.16893,0.0194 0.30012,0.009 0.4926,-0.0371 0.44371,-0.10725 0.89119,-0.40419 1.05778,-0.702 0.22105,-0.39516 0.1646,-0.87687 -0.13881,-1.18465 -0.17622,-0.17878 -0.4445,-0.28226 -0.70339,-0.27702 z m -3.32807,0.002 c -0.50659,0.013 -0.93306,0.42866 -0.93444,0.95016 0,0.14159 0.0614,0.37335 0.13263,0.49791 0.20863,0.36465 0.77522,0.70018 1.27246,0.75357 0.0773,0.007 0.15745,0.0128 0.17806,0.0103 0.0206,-0.002 0.083,-0.0103 0.13856,-0.0168 0.19925,-0.0227 0.37837,-0.16458 0.45022,-0.35661 0.14792,-0.39533 -0.0844,-1.12924 -0.48381,-1.5286 -0.16022,-0.1602 -0.37653,-0.26945 -0.5943,-0.30023 -0.0537,-0.007 -0.10697,-0.0102 -0.15938,-0.009 z m 3.32076,0.32041 c 0.0452,-7.5e-4 0.0914,0.002 0.13862,0.0115 0.13991,0.0249 0.2389,0.0813 0.34923,0.19934 0.22202,0.23732 0.21951,0.60685 -0.006,0.88747 -0.11357,0.14133 -0.41795,0.32128 -0.69469,0.41069 h -4e-5 c -0.1426,0.046 -0.33045,0.0697 -0.44649,0.0559 -0.17866,-0.0209 -0.24866,-0.12162 -0.24466,-0.35213 0.003,-0.1778 0.0403,-0.3344 0.12619,-0.52974 0.19488,-0.44354 0.46141,-0.67643 0.77784,-0.68279 z m -3.30608,0.005 c 0.17517,7.4e-4 0.31462,0.0471 0.44472,0.14843 0.26089,0.20326 0.49841,0.71864 0.49841,1.08081 -8e-5,0.17844 -0.0327,0.24998 -0.13645,0.29918 -0.0876,0.0416 -0.32188,0.0396 -0.48186,-0.004 -0.26218,-0.0718 -0.56346,-0.23402 -0.71673,-0.38603 -0.33823,-0.33545 -0.27786,-0.87129 0.12118,-1.07525 0.11006,-0.0564 0.1404,-0.0637 0.27073,-0.0629 z m 1.16991,2.53761 c -0.0368,0.002 -0.0714,0.0152 -0.1057,0.0431 -0.087,0.0709 -0.0774,0.17501 0.0241,0.26189 0.11946,0.10226 0.27849,0.17145 0.46819,0.20371 v -6e-5 c 0.0163,0.002 0.0864,0.004 0.15566,0.002 0.20866,-0.006 0.39916,-0.0778 0.54979,-0.20563 0.0739,-0.0627 0.0946,-0.1102 0.0778,-0.17849 -0.0212,-0.0866 -0.12395,-0.1436 -0.21346,-0.11855 -0.0231,0.006 -0.0687,0.0324 -0.10129,0.0577 -0.0326,0.0252 -0.094,0.0614 -0.13641,0.0801 -0.0724,0.032 -0.0854,0.0343 -0.21346,0.0343 -0.12807,0 -0.14113,-0.002 -0.21353,-0.0343 -0.0424,-0.0187 -0.10362,-0.0548 -0.1361,-0.08 -0.0576,-0.0445 -0.10829,-0.0661 -0.15557,-0.0652 z"
         sodipodi:nodetypes="ccssccssccccccccssccccccsssccccccccccscccccsccssccccscccc" /><path
         id="path6"
         style="fill:url(#linearGradient13028);stroke:url(#linearGradient13028);stroke-width:0.1;stroke-linecap:round;stroke-linejoin:round;stroke-dasharray:none"
         d="m 142.6481,154.24783 c -0.26768,0 -0.42158,0.006 -0.42158,0.02 0,0.011 -0.0271,0.02 -0.0602,0.02 -0.2059,0 -0.78393,0.16912 -1.13501,0.33207 -0.90215,0.4187 -1.63884,1.2346 -1.9675,2.17894 -0.1557,0.44738 -0.20997,0.77058 -0.20997,1.25447 0,1.2622 0.60374,2.99568 1.46197,4.19465 0.3945,0.55114 0.86751,0.99211 1.33384,1.24362 0.0886,0.0478 0.52922,0.27208 0.99843,0.27208 0.46571,0 0.90324,-0.21901 1.02776,-0.28693 0.94275,-0.5139 1.83316,-1.77574 2.38449,-3.37928 0.0972,-0.28261 0.20109,-0.66803 0.26987,-1.00111 0.21277,-1.03034 0.13026,-1.88601 -0.25839,-2.68016 -0.45981,-0.93959 -1.23086,-1.62387 -2.20425,-1.95613 -0.21821,-0.0745 -0.63615,-0.17192 -0.73738,-0.17192 -0.0333,0 -0.0605,-0.01 -0.0605,-0.02 0,-0.0123 -0.15392,-0.02 -0.42158,-0.02 z m 0.002,0.35627 c 0.1679,0 0.33513,0.007 0.44951,0.0239 1.02436,0.1424 1.91385,0.71534 2.48321,1.59944 0.14985,0.23266 0.32695,0.64661 0.41565,0.97155 0.0965,0.35353 0.13024,0.90318 0.082,1.33503 -0.1636,1.46286 -0.9348,3.15277 -1.86541,4.08776 -0.405,0.40691 -0.81322,0.66008 -1.20601,0.74792 -0.40188,0.09 -0.75162,0.0394 -1.16297,-0.16782 -1.01127,-0.50951 -2.03142,-2.07403 -2.4611,-3.77449 -0.14337,-0.56736 -0.18994,-0.90127 -0.18994,-1.37029 0,-0.44911 0.0581,-0.77764 0.21219,-1.19496 0.44301,-1.19967 1.51985,-2.06232 2.78898,-2.2342 0.11736,-0.016 0.28602,-0.0239 0.45394,-0.0238 z"
         sodipodi:nodetypes="csssssssscssssssccccsssscssssccc" /></g><path
       style="fill:url(#linearGradient13028);stroke:url(#linearGradient13028);stroke-width:0.0758283"
       d="m 185.50927,162.08798 c -0.50107,-0.0161 -1.02729,-0.0855 -1.26237,-0.16638 -0.23581,-0.0812 -0.418,-0.23153 -0.44319,-0.36581 -0.007,-0.0366 0.002,-0.17039 0.0185,-0.29713 0.0471,-0.34991 0.0698,-0.66441 0.0921,-1.27733 0.0205,-0.56233 0.0246,-1.74992 0.007,-1.86293 l -0.01,-0.0609 -0.24412,0.1191 c -0.29669,0.14473 -0.38018,0.15955 -0.47052,0.0835 -0.0757,-0.0637 -0.22117,-0.29482 -0.42977,-0.68271 -0.39418,-0.73297 -0.39665,-0.74258 -0.23162,-0.90196 0.13169,-0.12718 0.37319,-0.27151 0.96531,-0.5769 0.38366,-0.19788 0.53035,-0.26157 0.84569,-0.36721 0.20983,-0.0703 0.47718,-0.14707 0.59412,-0.1706 0.27699,-0.0557 0.34192,-0.0411 0.46329,0.10469 0.19432,0.23335 0.28016,0.31364 0.38275,0.35795 0.20911,0.0903 0.56737,0.0705 0.74332,-0.0411 0.0581,-0.0368 0.12615,-0.11051 0.19127,-0.20701 0.11622,-0.17222 0.17473,-0.22448 0.2717,-0.24268 0.10648,-0.02 0.43924,0.0566 0.86424,0.1989 0.31519,0.10553 0.46156,0.16908 0.84537,0.36704 0.59212,0.30539 0.83362,0.44972 0.9653,0.5769 0.16503,0.15938 0.16256,0.16899 -0.23161,0.90196 -0.2086,0.38789 -0.35411,0.61904 -0.42977,0.68271 -0.09,0.0757 -0.17254,0.0611 -0.47079,-0.0831 l -0.2444,-0.11814 -0.009,0.0602 c -0.0178,0.1126 -0.0137,1.30202 0.007,1.86585 0.0216,0.60481 0.0436,0.90645 0.0935,1.28218 0.0389,0.2932 0.0258,0.3523 -0.10471,0.47262 -0.16106,0.14846 -0.41208,0.23483 -0.85039,0.29257 -0.39837,0.0525 -1.24838,0.0772 -1.91673,0.0556 z m 1.45455,-0.34775 c 0.51666,-0.0353 0.94816,-0.12315 1.0632,-0.2163 l 0.0438,-0.0354 -0.0322,-0.26023 c -0.0645,-0.52074 -0.0751,-0.78609 -0.0854,-2.1305 l -0.0105,-1.36871 0.0608,-0.0608 c 0.0335,-0.0334 0.0796,-0.0608 0.10266,-0.0608 0.0231,0 0.19624,0.0772 0.38489,0.17173 0.18865,0.0944 0.34571,0.16893 0.34902,0.16552 0.0212,-0.0219 0.21271,-0.36214 0.37931,-0.67399 0.15286,-0.28615 0.19096,-0.37286 0.17321,-0.39424 -0.0429,-0.0517 -0.4126,-0.26076 -0.87382,-0.49418 -0.34566,-0.17493 -0.53948,-0.25921 -0.77242,-0.33591 -0.28588,-0.0941 -0.6088,-0.1844 -0.65966,-0.1844 -0.0115,0 -0.0562,0.052 -0.0993,0.11539 -0.21311,0.31382 -0.46097,0.43501 -0.88616,0.43326 -0.18405,-7.6e-4 -0.25664,-0.01 -0.35886,-0.0452 -0.17385,-0.0601 -0.31989,-0.15725 -0.42565,-0.28329 -0.0485,-0.0578 -0.1115,-0.13237 -0.13995,-0.16565 l -0.0517,-0.0605 -0.14889,0.0353 c -0.34428,0.0817 -0.828,0.25688 -1.14856,0.41591 -0.51611,0.25605 -0.99392,0.52493 -1.02652,0.57768 -0.0152,0.0246 0.41161,0.83446 0.54818,1.0401 0.0137,0.0207 0.0942,-0.0117 0.36141,-0.14546 0.18904,-0.0947 0.36257,-0.17209 0.38561,-0.17209 0.0231,0 0.0692,0.0273 0.10266,0.0608 l 0.0608,0.0608 -0.0105,1.36871 c -0.0103,1.34418 -0.021,1.60974 -0.086,2.1302 l -0.0324,0.25992 0.0441,0.0358 c 0.11074,0.0897 0.56382,0.18448 1.03251,0.21607 0.33638,0.0227 1.42815,0.023 1.75648,5.3e-4 z"
       id="path7"
       sodipodi:nodetypes="sssssscsssssssssssssssssscsssssssscsscsssssssssssssscssssssscsscssss" /></g></svg>
