<?xml version="1.0" encoding="UTF-8" standalone="no"?>
<!-- Uploaded to: SVG Repo, www.svgrepo.com, Generator: SVG Repo Mixer Tools -->

<svg
   width="1152.606"
   height="1152.606"
   viewBox="0 0 34.578179 34.578179"
   fill="none"
   version="1.1"
   id="svg3"
   sodipodi:docname="mushroom.svg"
   xml:space="preserve"
   inkscape:version="1.4 (1:1.4+202410161351+e7c3feb100)"
   xmlns:inkscape="http://www.inkscape.org/namespaces/inkscape"
   xmlns:sodipodi="http://sodipodi.sourceforge.net/DTD/sodipodi-0.dtd"
   xmlns="http://www.w3.org/2000/svg"
   xmlns:svg="http://www.w3.org/2000/svg"><defs
     id="defs3"><linearGradient
       id="linearGradient13028"
       inkscape:swatch="solid"
       gradientTransform="matrix(0.00339891,0,0,0.00339891,-1619971,-535020.87)"><stop
         style="stop-color:#ffffff;stop-opacity:1;"
         offset="0"
         id="stop13026" /></linearGradient><filter
       style="color-interpolation-filters:sRGB"
       inkscape:label="Brilliance"
       id="filter15535"
       x="0"
       y="0"
       width="1"
       height="1"><feColorMatrix
         values="1.8 -0 -0 0 -0.6 -0 1.8 -0 0 -0.6 -0 -0 1.8 0 -0.6 0 0 0 1 0 "
         id="feColorMatrix15533" /></filter><filter
       style="color-interpolation-filters:sRGB"
       inkscape:label="Brilliance"
       id="filter15535-3"
       x="0"
       y="0"
       width="1"
       height="1"><feColorMatrix
         values="1.8 -0 -0 0 -0.6 -0 1.8 -0 0 -0.6 -0 -0 1.8 0 -0.6 0 0 0 1 0 "
         id="feColorMatrix15533-6" /></filter><linearGradient
       id="linearGradient4952"
       inkscape:swatch="gradient"><stop
         style="stop-color:#9609cb;stop-opacity:1;"
         offset="0"
         id="stop4948" /><stop
         style="stop-color:#5197ef;stop-opacity:1"
         offset="1"
         id="stop4950" /></linearGradient><linearGradient
       id="linearGradient3949"><stop
         style="stop-color:#ff8353;stop-opacity:1;"
         offset="0"
         id="stop3945" /><stop
         style="stop-color:#ef2c5c;stop-opacity:1;"
         offset="1"
         id="stop3947" /></linearGradient><linearGradient
       id="linearGradient2682"
       inkscape:swatch="gradient"><stop
         style="stop-color:#cab611;stop-opacity:1;"
         offset="0"
         id="stop2678" /><stop
         style="stop-color:#34a16b;stop-opacity:1;"
         offset="1"
         id="stop2680" /></linearGradient><linearGradient
       id="linearGradient49155"
       inkscape:swatch="gradient"><stop
         style="stop-color:#ef2c5c;stop-opacity:1;"
         offset="0.16064256"
         id="stop49153" /><stop
         style="stop-color:#ff9369;stop-opacity:1;"
         offset="0.74698794"
         id="stop49151" /></linearGradient><linearGradient
       id="linearGradient49147"
       inkscape:swatch="gradient"><stop
         style="stop-color:#ef2c5c;stop-opacity:1;"
         offset="0"
         id="stop49145" /><stop
         style="stop-color:#ff9369;stop-opacity:1;"
         offset="1"
         id="stop49143" /></linearGradient><linearGradient
       id="linearGradient47747"
       inkscape:swatch="gradient"><stop
         style="stop-color:#ff9369;stop-opacity:1;"
         offset="0.25301206"
         id="stop47743" /><stop
         style="stop-color:#ef2c5c;stop-opacity:1;"
         offset="0.83935744"
         id="stop47745" /></linearGradient><linearGradient
       id="linearGradient47733"
       inkscape:swatch="gradient"><stop
         style="stop-color:#cab611;stop-opacity:1;"
         offset="0.10441767"
         id="stop47729" /><stop
         style="stop-color:#34a16b;stop-opacity:1;"
         offset="0.83935744"
         id="stop47731" /></linearGradient><linearGradient
       id="linearGradient47719"
       inkscape:swatch="gradient"><stop
         style="stop-color:#9609cb;stop-opacity:1;"
         offset="0.14257029"
         id="stop47715" /><stop
         style="stop-color:#5197ef;stop-opacity:1;"
         offset="0.86746985"
         id="stop47717" /></linearGradient><linearGradient
       id="linearGradient47711"
       inkscape:swatch="solid"
       gradientTransform="matrix(-1.0083931e-8,0,0,1.0059654e-8,11035.604,-3985.6317)"><stop
         style="stop-color:#000000;stop-opacity:1;"
         offset="0"
         id="stop47709" /></linearGradient><linearGradient
       id="linearGradient47705"
       inkscape:swatch="gradient"><stop
         style="stop-color:#a5a5a5;stop-opacity:1;"
         offset="0"
         id="stop47701" /><stop
         style="stop-color:#ffffff;stop-opacity:1;"
         offset="1"
         id="stop47703" /></linearGradient><linearGradient
       id="linearGradient2493"
       inkscape:swatch="solid"
       gradientTransform="matrix(0,0,0,0,-216977.73,2488.9081)"><stop
         style="stop-color:#000000;stop-opacity:1;"
         offset="1"
         id="stop2491" /></linearGradient><linearGradient
       id="linearGradient8269"
       inkscape:swatch="gradient"><stop
         style="stop-color:#ffce19;stop-opacity:1;"
         offset="0"
         id="stop8265" /><stop
         style="stop-color:#ed8700;stop-opacity:1;"
         offset="1"
         id="stop8267" /></linearGradient><linearGradient
       id="linearGradient8261"><stop
         style="stop-color:#f8c67b;stop-opacity:1;"
         offset="0"
         id="stop8259" /></linearGradient><linearGradient
       id="linearGradient8194"><stop
         style="stop-color:#ff9369;stop-opacity:1;"
         offset="0"
         id="stop8190" /><stop
         style="stop-color:#ef2c5c;stop-opacity:1;"
         offset="1"
         id="stop8192" /></linearGradient><filter
       style="color-interpolation-filters:sRGB"
       inkscape:label="Color Shift"
       id="filter3355"
       x="-7.5757202e-06"
       y="-4.9019363e-06"
       width="1.0000153"
       height="1.0000098"><feColorMatrix
         type="hueRotate"
         values="322"
         result="color1"
         id="feColorMatrix3351" /><feColorMatrix
         type="saturate"
         values="1"
         result="color2"
         id="feColorMatrix3353" /><feGaussianBlur
         stdDeviation="0.00059714693"
         id="feGaussianBlur3357"
         result="fbSourceGraphic" /><feColorMatrix
         result="fbSourceGraphicAlpha"
         in="fbSourceGraphic"
         values="0 0 0 -1 0 0 0 0 -1 0 0 0 0 -1 0 0 0 0 1 0"
         id="feColorMatrix4027" /><feColorMatrix
         id="feColorMatrix4029"
         type="hueRotate"
         values="77"
         result="color1"
         in="fbSourceGraphic" /><feColorMatrix
         id="feColorMatrix4031"
         type="saturate"
         values="1"
         result="color2" /></filter><clipPath
       clipPathUnits="userSpaceOnUse"
       id="clipPath1464"><rect
         style="opacity:0.276169;fill:url(#linearGradient13028);stroke-width:8.67006;stroke-linecap:round;stroke-linejoin:round"
         id="rect1466"
         width="212.89641"
         height="114.88921"
         x="-2721.4883"
         y="-923.37714"
         transform="matrix(0,1,1,0,0,0)" /></clipPath><clipPath
       clipPathUnits="userSpaceOnUse"
       id="clipPath4571"><rect
         style="opacity:0.276169;fill:url(#linearGradient13028);stroke-width:22.2632;stroke-linecap:round;stroke-linejoin:round"
         id="rect4573"
         width="709.79413"
         height="227.22069"
         x="-475.95242"
         y="1602.2736" /></clipPath><clipPath
       clipPathUnits="userSpaceOnUse"
       id="clipPath5290"><path
         id="path5292"
         style="opacity:0.120267;fill:url(#linearGradient13028);stroke-width:8.98001;stroke-linecap:round;stroke-linejoin:round"
         d="m -1005.8684,2661.5808 0.4167,-161.482 120.67876,-0.4167 v 161.8987 z"
         sodipodi:nodetypes="czccc" /></clipPath><linearGradient
       id="linearGradient1670"
       inkscape:swatch="gradient"><stop
         style="stop-color:#d02631;stop-opacity:1"
         offset="0"
         id="stop1666" /><stop
         style="stop-color:#f27c31;stop-opacity:1"
         offset="1"
         id="stop1668" /></linearGradient><linearGradient
       id="linearGradient1692"
       inkscape:swatch="gradient"><stop
         id="stop1688"
         offset="0"
         style="stop-color:#e02d2c;stop-opacity:1" /><stop
         id="stop1690"
         offset="1"
         style="stop-color:#e87830;stop-opacity:1" /></linearGradient><linearGradient
       id="linearGradient1058"
       inkscape:swatch="solid"
       gradientTransform="matrix(0.05935939,0,0,0.05186584,-228.20268,66.530975)"><stop
         style="stop-color:#7d50b1;stop-opacity:1;"
         offset="0"
         id="stop1056" /></linearGradient><filter
       style="color-interpolation-filters:sRGB"
       inkscape:label="Brilliance"
       id="filter15535-5"
       x="0"
       y="0"
       width="1"
       height="1"><feColorMatrix
         values="1.8 -0 -0 0 -0.6 -0 1.8 -0 0 -0.6 -0 -0 1.8 0 -0.6 0 0 0 1 0 "
         id="feColorMatrix15533-3" /></filter><filter
       style="color-interpolation-filters:sRGB"
       inkscape:label="Brilliance"
       id="filter15535-3-5"
       x="0"
       y="0"
       width="1"
       height="1"><feColorMatrix
         values="1.8 -0 -0 0 -0.6 -0 1.8 -0 0 -0.6 -0 -0 1.8 0 -0.6 0 0 0 1 0 "
         id="feColorMatrix15533-6-6" /></filter><filter
       style="color-interpolation-filters:sRGB"
       inkscape:label="Brilliance"
       id="filter15535-6"
       x="0"
       y="0"
       width="1"
       height="1"><feColorMatrix
         values="1.8 -0 -0 0 -0.6 -0 1.8 -0 0 -0.6 -0 -0 1.8 0 -0.6 0 0 0 1 0 "
         id="feColorMatrix15533-7" /></filter><filter
       style="color-interpolation-filters:sRGB"
       inkscape:label="Brilliance"
       id="filter15535-3-53"
       x="0"
       y="0"
       width="1"
       height="1"><feColorMatrix
         values="1.8 -0 -0 0 -0.6 -0 1.8 -0 0 -0.6 -0 -0 1.8 0 -0.6 0 0 0 1 0 "
         id="feColorMatrix15533-6-5" /></filter><filter
       style="color-interpolation-filters:sRGB"
       inkscape:label="Color Shift"
       id="filter3355-2"
       x="-7.5757202e-06"
       y="-4.9019363e-06"
       width="1.0000153"
       height="1.0000098"><feColorMatrix
         type="hueRotate"
         values="322"
         result="color1"
         id="feColorMatrix3351-8" /><feColorMatrix
         type="saturate"
         values="1"
         result="color2"
         id="feColorMatrix3353-9" /><feGaussianBlur
         stdDeviation="0.00059714693"
         id="feGaussianBlur3357-7"
         result="fbSourceGraphic" /><feColorMatrix
         result="fbSourceGraphicAlpha"
         in="fbSourceGraphic"
         values="0 0 0 -1 0 0 0 0 -1 0 0 0 0 -1 0 0 0 0 1 0"
         id="feColorMatrix4027-3" /><feColorMatrix
         id="feColorMatrix4029-6"
         type="hueRotate"
         values="77"
         result="color1"
         in="fbSourceGraphic" /><feColorMatrix
         id="feColorMatrix4031-1"
         type="saturate"
         values="1"
         result="color2" /></filter><clipPath
       clipPathUnits="userSpaceOnUse"
       id="clipPath1464-2"><rect
         style="opacity:0.276169;fill:url(#linearGradient13028);stroke-width:8.67006;stroke-linecap:round;stroke-linejoin:round"
         id="rect1466-9"
         width="212.89641"
         height="114.88921"
         x="-2721.4883"
         y="-923.37714"
         transform="matrix(0,1,1,0,0,0)" /></clipPath><clipPath
       clipPathUnits="userSpaceOnUse"
       id="clipPath4571-3"><rect
         style="opacity:0.276169;fill:url(#linearGradient13028);stroke-width:22.2632;stroke-linecap:round;stroke-linejoin:round"
         id="rect4573-1"
         width="709.79413"
         height="227.22069"
         x="-475.95242"
         y="1602.2736" /></clipPath><clipPath
       clipPathUnits="userSpaceOnUse"
       id="clipPath5290-9"><path
         id="path5292-4"
         style="opacity:0.120267;fill:url(#linearGradient13028);stroke-width:8.98001;stroke-linecap:round;stroke-linejoin:round"
         d="m -1005.8684,2661.5808 0.4167,-161.482 120.67876,-0.4167 v 161.8987 z"
         sodipodi:nodetypes="czccc" /></clipPath><filter
       style="color-interpolation-filters:sRGB"
       inkscape:label="Brilliance"
       id="filter15535-5-3"
       x="0"
       y="0"
       width="1"
       height="1"><feColorMatrix
         values="1.8 -0 -0 0 -0.6 -0 1.8 -0 0 -0.6 -0 -0 1.8 0 -0.6 0 0 0 1 0 "
         id="feColorMatrix15533-3-6" /></filter><filter
       style="color-interpolation-filters:sRGB"
       inkscape:label="Brilliance"
       id="filter15535-3-5-1"
       x="0"
       y="0"
       width="1"
       height="1"><feColorMatrix
         values="1.8 -0 -0 0 -0.6 -0 1.8 -0 0 -0.6 -0 -0 1.8 0 -0.6 0 0 0 1 0 "
         id="feColorMatrix15533-6-6-0" /></filter></defs><sodipodi:namedview
     id="namedview3"
     pagecolor="#505050"
     bordercolor="#ffffff"
     borderopacity="1"
     inkscape:showpageshadow="0"
     inkscape:pageopacity="0"
     inkscape:pagecheckerboard="1"
     inkscape:deskcolor="#d1d1d1"
     inkscape:zoom="0.19141477"
     inkscape:cx="-36.569802"
     inkscape:cy="-253.37648"
     inkscape:window-width="1920"
     inkscape:window-height="1004"
     inkscape:window-x="0"
     inkscape:window-y="0"
     inkscape:window-maximized="1"
     inkscape:current-layer="svg3" /><g
     id="g14"
     transform="translate(-48.938703,40.153578)"><path
       id="path4"
       style="color:#000000;font-style:normal;font-variant:normal;font-weight:normal;font-stretch:normal;font-size:medium;line-height:normal;font-family:sans-serif;font-variant-ligatures:normal;font-variant-position:normal;font-variant-caps:normal;font-variant-numeric:normal;font-variant-alternates:normal;font-variant-east-asian:normal;font-feature-settings:normal;font-variation-settings:normal;text-indent:0;text-align:start;text-decoration-line:none;text-decoration-style:solid;text-decoration-color:#000000;letter-spacing:normal;word-spacing:normal;text-transform:none;writing-mode:lr-tb;direction:ltr;text-orientation:mixed;dominant-baseline:auto;baseline-shift:baseline;text-anchor:start;white-space:normal;shape-padding:0;shape-margin:0;inline-size:0;clip-rule:nonzero;display:inline;overflow:visible;visibility:visible;isolation:auto;mix-blend-mode:normal;color-interpolation:sRGB;color-interpolation-filters:linearRGB;solid-color:#000000;solid-opacity:1;vector-effect:none;fill:url(#linearGradient13028);fill-opacity:1;fill-rule:nonzero;stroke:none;stroke-linecap:round;stroke-linejoin:round;stroke-miterlimit:4;stroke-dasharray:none;stroke-dashoffset:0;stroke-opacity:1;-inkscape-stroke:none;color-rendering:auto;image-rendering:auto;shape-rendering:auto;text-rendering:auto;enable-background:accumulate;stop-color:#000000;stop-opacity:1"
       d="m 66.246935,-31.284703 c -1.46379,0 -1.86989,0.02963 -2.580121,0.183633 -1.1215,0.243077 -2.14622,0.632037 -3.06609,1.157192 -0.963,0.556495 -0.47098,1.72338 0.72238,1.059377 0.93381,-0.512996 1.98974,-0.86414 3.154431,-1.040886 0.45251,-0.06867 1.11103,-0.103007 1.76954,-0.103007 v 5.8e-5 c 0.65851,0 1.31703,0.03433 1.76953,0.103008 4.027669,0.611658 6.693569,3.217695 7.607399,7.458984 0.17516,0.817634 0.17592,3.542805 0.004,4.31836 -0.0285,0.128173 -0.0551,0.23306 -0.0801,0.333984 -0.13846,-0.04308 -0.3029,-0.09799 -0.49412,-0.165996 -2.22342,-0.790701 -5.707549,-1.157366 -9.843749,-1.06834 -3.088731,0.06699 -5.361781,0.339475 -7.156231,0.871055 -6.8e-4,0.0013 -10e-4,0.0026 -0.002,0.0039 -0.41152,0.122398 -0.81506,0.26324 -1.0643,0.380859 -0.0971,-0.365668 -0.20845,-1.002016 -0.25582,-1.763672 -0.0543,-0.872978 -0.0455,-1.797067 0.0312,-2.246133 0.25437,-1.488622 0.6496,-2.682064 1.23169,-3.728906 0.30781,-0.615251 -0.65176,-1.269363 -1.22284,-0.425967 -0.0931,0.171191 -0.18449,0.343994 -0.26865,0.524062 -0.75358,1.612795 -1.15042,3.619583 -1.09184,5.498027 l 0.0293,1.015664 c 6.6e-4,0.0013 10e-4,0.0026 0.002,0.0039 0.006,0.18508 0.014,0.778227 0.19336,1.390664 0.17962,0.61328 0.55771,1.299246 1.3203,1.552734 l 0.31248,0.138633 c 0.56245,0.248557 1.68373,0.553873 2.77347,0.77543 0.25596,0.05183 0.49232,0.103683 0.66405,0.142558 -0.0151,0.09047 -0.0297,0.175628 -0.0527,0.304688 -0.0656,0.367209 -0.16185,0.87194 -0.26953,1.423827 -0.11391,0.582942 -0.2123,1.14503 -0.28318,1.601543 -0.0709,0.456513 -0.11507,0.785144 -0.11526,0.996094 -8.5e-4,0.8023865 0.26473,1.7672195 0.67576,2.4590035 0.42574,0.716747 1.23803,1.498462 1.94532,1.855489 0.48743,0.246331 0.84075,0.399471 1.345721,0.474609 0.50496,0.07514 1.14526,0.08203 2.29494,0.08203 1.15414,0 1.79383,-0.0073 2.30074,-0.08402 0.5069,-0.07665 0.86308,-0.232229 1.3633,-0.484336 0.77825,-0.392296 1.696839,-1.324301 2.076149,-2.109375 0.31228,-0.646174 0.49041,-1.184743 0.50584,-1.8847855 0.0154,-0.700041 -0.11817,-1.548156 -0.37886,-2.908184 -0.10612,-0.553784 -0.19949,-1.060443 -0.26561,-1.427753 -0.0231,-0.128196 -0.0375,-0.212642 -0.0527,-0.302754 0.17046,-0.03804 0.40108,-0.08737 0.65426,-0.138632 6.7e-4,2e-6 10e-4,2e-6 0.002,0 0.85739,-0.174082 1.69004,-0.396793 2.37105,-0.626954 0.68102,-0.23016 1.18866,-0.434082 1.49614,-0.703125 0.25478,-0.222915 0.34301,-0.542214 0.50982,-1.250039 0.1994,-0.845301 0.22123,-1.114649 0.2206,-2.646445 0,-1.422329 -0.0302,-1.833312 -0.18351,-2.537109 -0.50453,-2.317569 -1.54861,-4.260258 -3.09574,-5.738321 -1.34816,-1.288063 -2.950369,-2.108628 -4.945319,-2.540976 -0.70958,-0.152309 -1.114,-0.183633 -2.57806,-0.183633 z m 4.51969,3.875449 c -0.0877,-0.008 -0.17891,0.0015 -0.26948,0.03867 l -2.3e-4,-5.8e-5 c -0.18117,0.07426 -0.29144,0.243889 -0.34178,0.402363 -0.0526,0.165885 0.009,0.381569 0.1074,0.519551 0.0986,0.137981 0.23316,0.270839 0.44139,0.466757 0.619789,0.583453 0.800879,0.831941 1.146499,1.580098 0.37303,0.807069 0.62838,1.878057 0.68362,2.896465 0.017,0.312245 0.0367,0.553747 0.0664,0.740273 0.0289,0.181195 0.0238,0.303058 0.18358,0.470684 0.005,0.0049 0.001,0.0087 0.006,0.01365 10e-4,0.002 0.003,0.0039 0.004,0.0059 0.0353,0.03449 0.0671,0.0677 0.11912,0.105469 0.052,0.03777 0.13855,0.08244 0.23437,0.08982 0.19165,0.01476 0.27596,-0.05932 0.37694,-0.113262 0.1155,-0.062 0.25479,-0.233381 0.29103,-0.38871 0.0362,-0.155329 0.0353,-0.309587 0.0352,-0.556641 -0.002,-2.023869 -0.72642,-4.175595 -1.87307,-5.414063 -0.36882,-0.398338 -0.65761,-0.660352 -0.96287,-0.791015 -0.0763,-0.03265 -0.160379,-0.05801 -0.248029,-0.06598 z m -5.82123,9.655141 c 0.62487,-0.0063 1.35288,-0.0051 2.05353,0.0026 0.70065,0.0077 1.3786,0.022 1.90816,0.04107 0.26478,0.0095 0.49284,0.01962 0.66604,0.03123 0.1732,0.01161 0.30855,0.03037 0.31248,0.03129 l 0.0665,0.01559 0.60938,3.146484 c 0.22243,1.149617 0.38377,2.035051 0.490189,2.679726 0.10641,0.644674 0.15515,1.064214 0.15627,1.216758 0.0101,1.5233985 -0.940189,2.8643455 -2.433569,3.4101565 -0.19747,0.0724 -0.3078,0.103774 -0.61723,0.128906 -0.30943,0.02513 -0.80417,0.03545 -1.67965,0.04687 -1.3458,0.01708 -2.154,-0.02093 -2.71488,-0.169922 -0.560891,-0.148991 -0.901181,-0.393234 -1.396461,-0.888633 -0.54751,-0.547743 -0.81157,-0.992417 -0.97852,-1.632832 -0.11374,-0.4367295 -0.15272,-0.6531305 -0.0274,-1.5663865 0.12521,-0.913255 0.42787,-2.474257 1.01174,-5.423847 0.0608,-0.308404 0.11958,-0.591452 0.16599,-0.798809 0.0134,-0.05967 0.0224,-0.09541 0.0332,-0.140625 0.044,-0.0054 0.0773,-0.0095 0.13476,-0.01564 0.20843,-0.02218 0.49436,-0.04866 0.80467,-0.07231 0.288131,-0.02178 0.809911,-0.03541 1.434791,-0.04166 z m 6.350269,0.24873 h 1.2e-4 c 0.0526,0.0063 0.0852,0.0064 0.14841,0.01564 0.30143,0.04398 0.71027,0.119525 1.14065,0.208945 0.63339,0.131601 1.1475,0.280385 1.61133,0.416016 -0.61391,0.204638 -1.25608,0.400836 -2.05858,0.5625 -0.21916,0.04448 -0.42643,0.08442 -0.58207,0.11332 -0.002,-0.0067 -0.002,-0.0087 -0.004,-0.01564 -0.0436,-0.176429 -0.0966,-0.420465 -0.14461,-0.666035 -0.045,-0.229983 -0.0841,-0.454415 -0.11127,-0.634747 z m -10.09951,1.18e-4 c -0.0242,0.174471 -0.0588,0.391774 -0.10348,0.636562 -1.3e-4,7.31e-4 1.4e-4,0.0012 0,0.0021 -0.0647,0.351611 -0.11078,0.552873 -0.14648,0.679688 -0.11986,-0.01802 -0.23491,-0.03361 -0.44924,-0.0801 -0.30286,-0.06569 -0.66825,-0.154999 -1.03711,-0.250019 -0.49073,-0.126414 -0.80779,-0.233789 -1.16016,-0.345703 0.42886,-0.128738 0.91118,-0.273535 1.55467,-0.408164 0.4382,-0.09168 0.8596,-0.169018 1.17187,-0.214864 0.0719,-0.01055 0.11124,-0.01262 0.16993,-0.01951 z m 7.638101,2.024882 c -0.0529,-0.0077 -0.10499,-0.0071 -0.14982,4.11e-4 v -5.9e-5 c -0.0897,0.01504 -0.15551,0.04744 -0.21287,0.07816 -6.7e-4,-2e-6 -0.001,-2e-6 -0.002,0 -0.20935,0.113914 -0.34183,0.266247 -0.34183,0.54293 0,0.06606 0.006,0.07902 0.0117,0.121113 0.006,0.04209 0.0152,0.09319 0.0254,0.15627 0.0205,0.126161 0.048,0.295046 0.084,0.496113 0.0718,0.402134 0.17059,0.932366 0.27938,1.496073 0.19843,1.029746 0.30052,1.61017 0.3242,1.953106 0.0237,0.342937 -0.005,0.412497 -0.1036,0.609375 -0.0287,0.057161 -0.16376,0.2262465 -0.31049,0.3534965 -0.14673,0.127251 -0.33586,0.225573 -0.3399,0.226582 -0.20662,0.05231 -0.38674,0.178172 -0.48627,0.361347 -0.0664,0.122117 -0.0203,0.270725 0.002,0.414024 -0.0145,0.01502 -0.0276,0.03138 -0.0391,0.04887 v 0.0039 l 0.0391,-0.0098 c 0.0122,0.05421 -0.026,0.10821 0,0.158203 1.4e-4,2.8e-4 -1.5e-4,0.0017 0,0.002 6.4e-4,0.0012 -6.6e-4,0.0027 0,0.0039 0.0546,0.0914 0.14977,0.150991 0.25583,0.160137 0.0902,0.06039 0.14907,0.160479 0.25195,0.162129 0.20816,0.0033 0.37641,-0.0682 0.59572,-0.169922 0.82118,-0.380989 1.41711,-1.279123 1.43555,-2.1816215 0.002,-0.102833 -0.0122,-0.20214 -0.0312,-0.355489 -0.0191,-0.153349 -0.0459,-0.345075 -0.0801,-0.564433 -0.0684,-0.438716 -0.16397,-0.988452 -0.26953,-1.544942 -0.20419,-1.074435 -0.32188,-1.66488 -0.45703,-2.029276 -0.0676,-0.182198 -0.13375,-0.341354 -0.32625,-0.443379 -0.0481,-0.0255 -0.10178,-0.04151 -0.15469,-0.04922 z"
       sodipodi:nodetypes="scccscccccccccccscccccccsccccccscccsscccssscccsscccccssccccccccccccsscccssccsscssccsccscsccccccccsscscscccccscssccsscsssssccccsccccscsccccccscccccccscssss" /><g
       id="path17173"><path
         style="fill:url(#linearGradient13028);stroke-linecap:round;stroke-linejoin:round"
         d="m 58.035013,-32.249269 c -0.563752,-0.297951 -0.8985,-0.914822 -0.811683,-1.495406 0.121074,-0.809338 0.983635,-1.399712 1.750884,-1.198349 1.34212,0.352356 1.499653,2.192004 0.232961,2.72111 -0.332265,0.139169 -0.882243,0.125827 -1.172265,-0.02517 z m 1.267447,-0.643912 c 0.17464,-0.174961 0.210471,-0.265597 0.234878,-0.603215 0.02517,-0.389465 0.02237,-0.402259 -0.228846,-0.654754 -0.33574,-0.33574 -0.622075,-0.394219 -1.035333,-0.21143 -0.249459,0.11029 -0.329548,0.190499 -0.43995,0.439849 -0.182869,0.413326 -0.124548,0.69967 0.211431,1.035365 0.252294,0.252294 0.265316,0.257048 0.65485,0.228846 0.337578,-0.02238 0.428221,-0.05992 0.603186,-0.234877 z m 13.757535,0.47228 c -0.07039,-0.183229 -0.04659,-0.227569 0.333663,-0.626006 l 0.373527,-0.391583 -0.373527,-0.377483 c -0.378281,-0.382236 -0.437254,-0.513608 -0.294476,-0.65618 0.13821,-0.138211 0.250097,-0.08781 0.648826,0.292557 l 0.389346,0.371373 0.389427,-0.371373 c 0.398493,-0.380118 0.510627,-0.43072 0.648793,-0.292557 0.142965,0.142964 0.08336,0.278618 -0.291918,0.665942 l -0.370613,0.382636 0.376324,0.38028 c 0.283692,0.286846 0.370813,0.418869 0.354155,0.536875 -0.01598,0.106813 -0.07226,0.163856 -0.179075,0.179075 -0.118235,0.01598 -0.251016,-0.07162 -0.542073,-0.359348 l -0.385512,-0.381476 -0.379718,0.375724 c -0.382717,0.378721 -0.620778,0.471515 -0.69742,0.271947 z m -3.323692,-0.681601 c -0.0096,0.03955 -0.01283,-0.304304 0.205078,-0.936378 0.150874,-0.44429 0.302386,-0.844773 0.337298,-0.889944 0.08844,-0.114123 0.27702,-0.102379 0.381798,0.02237 0.07418,0.09004 0.04535,0.231403 -0.195572,0.946108 -0.155627,0.462261 -0.315688,0.873079 -0.355553,0.912855 -0.112842,0.112846 -0.302386,0.0096 -0.37309,-0.05609 z m -4.097307,-0.441024 c -0.02237,-0.02237 -0.04375,-0.290043 -0.04375,-0.591363 v -0.547556 h -0.520958 c -0.52312,0 -0.727499,-0.08054 -0.727499,-0.287486 0,-0.181312 0.16801,-0.238673 0.703093,-0.238673 h 0.545369 v -0.545368 c 0,-0.561251 0.05548,-0.703094 0.273865,-0.703094 0.180991,0 0.251655,0.21175 0.251655,0.748735 v 0.494562 l 0.574912,0.01917 c 0.553609,0.01918 0.575794,0.02237 0.597605,0.179395 0.03435,0.245662 -0.14612,0.332224 -0.692283,0.332224 h -0.480234 v 0.464291 c 0,0.25517 -0.03236,0.521437 -0.06814,0.591329 -0.06531,0.122033 -0.322997,0.174002 -0.413862,0.08304 z m -3.04641,-2.929455 c -0.15311,-0.20348 -1.405865,-2.958323 -1.387546,-3.051704 0.03236,-0.157543 0.230764,-0.262439 0.351119,-0.183826 0.102058,0.06624 1.476483,2.934269 1.476483,3.080643 0,0.204122 -0.318763,0.316327 -0.44004,0.155308 z m 7.569241,-0.176237 c -0.746421,-0.181631 -1.241295,-0.911275 -1.117045,-1.646663 0.06468,-0.384233 0.405017,-0.850702 0.755705,-1.036475 0.414874,-0.219658 1.044973,-0.189221 1.435819,0.0691 0.570918,0.377843 0.810386,1.097743 0.572408,1.720865 -0.155306,0.406411 -0.605845,0.793298 -1.029945,0.884205 -0.359826,0.07733 -0.337537,0.07702 -0.616942,0.0096 z m 0.798626,-0.62905 c 0.397456,-0.260563 0.534052,-0.857992 0.288444,-1.261108 -0.356632,-0.584894 -1.31385,-0.541025 -1.605457,0.07354 -0.129623,0.273227 -0.134055,0.500742 -0.01283,0.786263 0.09254,0.222176 0.362104,0.456495 0.59884,0.520935 0.201604,0.05516 0.554531,-0.0025 0.732856,-0.119796 z"
         id="path16" /><path
         style="fill:url(#linearGradient13028);stroke-linecap:round;stroke-linejoin:round"
         d="m 61.21875,-39.949219 c -0.134066,0.07044 -0.247151,0.193624 -0.283203,0.369141 a 0.2751005,0.2751005 0 0 0 0,0.002 c -1.43e-4,7.3e-4 -0.006,0.04451 -0.0059,0.05859 1.47e-4,0.01409 9.09e-4,0.02441 0.002,0.0332 0.0021,0.01759 0.0054,0.02863 0.0078,0.03906 0.0048,0.02086 0.01008,0.03755 0.01563,0.05469 0.0111,0.03428 0.02357,0.07217 0.04102,0.117187 0.03489,0.09004 0.08326,0.206818 0.142578,0.345704 0.118625,0.27777 0.279636,0.639551 0.445312,1.003906 0.165677,0.364355 0.336565,0.73238 0.476563,1.023437 0.07,0.145529 0.13282,0.270463 0.183594,0.369141 0.05077,0.09868 0.0743,0.15399 0.128906,0.226562 0.14879,0.197548 0.39863,0.214936 0.576172,0.152344 0.177542,-0.06259 0.359375,-0.227408 0.359375,-0.472656 0,-0.116769 -0.01839,-0.111399 -0.03125,-0.148438 -0.01286,-0.03704 -0.02886,-0.07999 -0.04883,-0.128906 -0.03993,-0.09783 -0.09614,-0.222235 -0.16211,-0.36914 -0.131935,-0.293811 -0.307385,-0.66959 -0.486328,-1.042969 -0.178943,-0.37338 -0.360963,-0.745503 -0.505859,-1.029297 -0.07245,-0.141897 -0.135271,-0.261258 -0.185547,-0.351563 -0.02514,-0.04515 -0.04571,-0.08264 -0.06641,-0.115234 -0.01035,-0.01629 -0.02011,-0.03157 -0.0332,-0.04883 -0.01293,-0.01704 -0.01587,-0.03479 -0.08203,-0.07813 h -0.002 c -0.164535,-0.106277 -0.352798,-0.07992 -0.486328,-0.0098 z m 8.453125,0.373047 c -0.45395,0.240475 -0.813587,0.730316 -0.898438,1.234375 -0.148965,0.88167 0.439081,1.740173 1.320313,1.957031 0.0015,3.68e-4 0.0024,0.0016 0.0039,0.002 a 0.2751005,0.2751005 0 0 0 0,0.002 c 0.275976,0.06659 0.380589,0.06906 0.738281,-0.0078 0.541452,-0.116062 1.032621,-0.536949 1.230469,-1.054687 0.285115,-0.746545 -0.0022,-1.601776 -0.677734,-2.048828 -0.496005,-0.327824 -1.190848,-0.362453 -1.716797,-0.08398 z m 0.257812,0.486328 c 0.06271,-0.0332 0.157997,0.02911 0.238282,0.01172 -0.181599,0.05179 -0.324121,0.161658 -0.462891,0.294922 0.09305,-0.107399 0.134173,-0.258733 0.224609,-0.306642 z m 0.837891,0.04102 c 0.109257,0.02696 0.238095,-0.03613 0.316406,0.01563 0.09024,0.05972 0.116654,0.164389 0.185547,0.242187 -0.141871,-0.142749 -0.315602,-0.204132 -0.501953,-0.257812 z m -0.332031,0.376953 c 0.226347,-0.01011 0.458348,0.07895 0.578125,0.275391 0.159197,0.26129 0.05727,0.717965 -0.203125,0.888672 -0.03684,0.02423 -0.142892,0.06453 -0.25,0.08203 -0.107108,0.0175 -0.219954,0.01231 -0.257813,0.002 a 0.2751005,0.2751005 0 0 0 -0.002,0 c -0.12474,-0.03395 -0.369982,-0.250809 -0.416015,-0.361328 a 0.2751005,0.2751005 0 0 0 0,-0.002 c -0.09974,-0.234916 -0.0975,-0.338553 0.0078,-0.560547 0.09692,-0.204258 0.316622,-0.314109 0.542969,-0.324219 z m 1.082031,0.203125 c 0.03703,0.09133 0.02965,0.178448 0.04297,0.275391 -0.01031,-0.09414 -0.0099,-0.18505 -0.04297,-0.275391 z m -2.126953,0.117188 c -0.03371,0.131091 -0.01963,0.262651 -0.0078,0.396484 -0.01218,-0.102166 -0.08399,-0.190836 -0.06641,-0.294922 0.0054,-0.03198 0.06136,-0.06521 0.07422,-0.101562 z m 2.160156,0.662109 c -0.0053,0.01605 0.0061,0.03294 0,0.04883 -0.01133,0.02945 -0.06517,0.04202 -0.08203,0.07227 0.02132,-0.04459 0.0662,-0.07438 0.08203,-0.121094 z m -2.05664,0.216797 c 0.06014,0.101146 0.169116,0.146287 0.255859,0.224609 -0.08884,-0.07988 -0.19433,-0.124217 -0.255859,-0.224609 z m -3.625,0.740234 c -0.08437,0 -0.185189,0.01444 -0.279297,0.07227 -0.09411,0.05783 -0.159772,0.152962 -0.195313,0.24414 -0.07108,0.182358 -0.07422,0.372421 -0.07422,0.66211 v 0.269531 H 65.05078 c -0.277371,0 -0.4688,0.0074 -0.642578,0.06641 -0.08689,0.02953 -0.177227,0.07838 -0.244141,0.164063 -0.06691,0.08568 -0.0918,0.195393 -0.0918,0.283203 0,0.09701 0.02813,0.208888 0.09375,0.296875 0.06562,0.08799 0.157065,0.145709 0.248046,0.181641 0.181964,0.07186 0.38448,0.08398 0.660157,0.08398 h 0.246093 v 0.273437 c 0,0.157166 0.0048,0.305285 0.01367,0.421875 0.0044,0.0583 0.01053,0.107265 0.01758,0.152344 0.0035,0.02254 0.0066,0.04414 0.01367,0.07031 0.0036,0.01309 0.0069,0.02635 0.01563,0.04687 0.0044,0.01026 0.01055,0.02201 0.01953,0.03711 0.009,0.0151 0.04422,0.05594 0.04492,0.05664 0.0014,0.0014 0.0025,6.09e-4 0.0039,0.002 a 0.2751005,0.2751005 0 0 0 0.246093,0.05859 c 0.07277,0.0082 0.150335,0.0657 0.214844,0.05273 0.140073,-0.02816 0.288758,-0.08233 0.384766,-0.261719 a 0.2751005,0.2751005 0 0 0 0.002,-0.0039 c 0.06713,-0.131129 0.0622,-0.201068 0.07617,-0.320313 0.01397,-0.119244 0.02344,-0.257271 0.02344,-0.396484 v -0.189453 h 0.205078 c 0.287614,0 0.491826,-0.01048 0.681641,-0.101563 0.09491,-0.04554 0.189219,-0.124933 0.240234,-0.230468 0.05102,-0.105536 0.05644,-0.216176 0.04297,-0.3125 -0.0063,-0.04543 -0.01019,-0.111281 -0.0625,-0.197266 -0.05231,-0.08599 -0.155229,-0.147181 -0.232422,-0.169922 -0.154385,-0.04548 -0.289201,-0.03922 -0.566406,-0.04883 l -0.308594,-0.01172 v -0.228515 c 0,-0.280559 -0.01226,-0.483288 -0.07227,-0.66211 -0.03001,-0.08941 -0.0765,-0.17806 -0.158203,-0.25 -0.08171,-0.07194 -0.197991,-0.111328 -0.296875,-0.111328 z m -6.824219,1.523438 c -0.943901,-0.247725 -1.947289,0.444788 -2.09375,1.423828 -0.106327,0.711052 0.292425,1.429075 0.955078,1.779297 a 0.2751005,0.2751005 0 0 0 0.002,0.002 c 0.20524,0.106856 0.445152,0.146837 0.691406,0.152344 0.246255,0.0055 0.493987,-0.0255 0.712891,-0.117188 0.74171,-0.309817 1.088997,-1.028675 1.03125,-1.703125 -0.05775,-0.67445 -0.516602,-1.331746 -1.298828,-1.537109 z m 6.814453,0.01172 a 0.2751005,0.2751005 0 0 0 0.248047,0.251954 0.2751005,0.2751005 0 0 0 -0.25,0.25 0.2751005,0.2751005 0 0 0 -0.25,-0.25 0.2751005,0.2751005 0 0 0 0.251953,-0.251954 z m 4.201172,0.09961 c -0.03506,0.04537 -0.03789,0.05933 -0.04883,0.08203 -0.01094,0.0227 -0.02136,0.04812 -0.0332,0.07617 -0.0237,0.05611 -0.05071,0.126286 -0.08203,0.208984 -0.06265,0.165397 -0.138483,0.378653 -0.214843,0.603516 -0.113559,0.329832 -0.171407,0.589227 -0.199219,0.765625 -0.01394,0.08841 -0.02104,0.155145 -0.02344,0.205078 -0.0012,0.02497 -0.0029,0.04058 0,0.07422 7.14e-4,0.0084 0.002,0.01836 0.0059,0.03711 0.0019,0.0094 0.01161,0.03875 0.01172,0.03906 5.7e-5,1.54e-4 0.01752,0.03895 0.01758,0.03906 5.9e-5,1.09e-4 0.04486,0.06048 0.04492,0.06055 3.2e-5,3.1e-5 0.05075,0.041 0.05078,0.04102 1e-6,0 0.0054,-0.009 0.0059,-0.0098 0.06449,0.05253 0.131714,0.101233 0.236328,0.130859 0.125133,0.03544 0.330216,0.02955 0.470703,-0.109375 0.05621,-0.05608 0.05709,-0.07089 0.07031,-0.0957 0.01322,-0.02482 0.024,-0.05088 0.03711,-0.08008 0.02621,-0.05839 0.05655,-0.131332 0.08984,-0.216797 0.06658,-0.17093 0.147512,-0.392149 0.226562,-0.626953 h -0.002 c 0.121154,-0.359407 0.192426,-0.572852 0.226563,-0.738281 0.01707,-0.08272 0.02641,-0.155706 0.01758,-0.238281 -0.0088,-0.08258 -0.04914,-0.1759 -0.0957,-0.232422 a 0.2751005,0.2751005 0 0 0 -0.002,-0.002 c -0.203852,-0.242707 -0.600539,-0.284667 -0.810547,-0.01367 z m 3.078125,0.292969 c -0.104984,0.02546 -0.18079,0.08509 -0.234375,0.138671 -0.05734,0.05726 -0.116765,0.1363 -0.140625,0.242188 -0.02386,0.105888 -0.0014,0.216954 0.03711,0.302734 0.07699,0.17156 0.201288,0.30081 0.396485,0.498047 l 0.185546,0.1875 -0.1875,0.199219 c -0.191666,0.200832 -0.302513,0.306204 -0.380859,0.453125 -0.03917,0.07346 -0.06467,0.169467 -0.06055,0.255859 0.0041,0.08639 0.02804,0.15096 0.04883,0.205078 0.0388,0.101044 0.131265,0.212983 0.25586,0.25586 0.124594,0.04288 0.241089,0.0194 0.335937,-0.01758 0.189696,-0.07396 0.352997,-0.210592 0.556641,-0.41211 l 0.185547,-0.185547 0.191406,0.191407 c 0.150476,0.148754 0.264746,0.250565 0.378906,0.326172 0.11416,0.07561 0.255756,0.128131 0.394531,0.109375 a 0.2751005,0.2751005 0 0 0 0.002,0 c 0.09424,-0.01343 0.199785,-0.05304 0.279296,-0.132813 0.07951,-0.07977 0.118891,-0.184289 0.132813,-0.277344 a 0.2751005,0.2751005 0 0 0 0,-0.0039 c 0.01959,-0.138781 -0.03239,-0.280789 -0.107422,-0.394531 -0.07504,-0.113743 -0.177435,-0.224632 -0.324219,-0.373047 l -0.185547,-0.189453 0.183594,-0.189453 c 0.193742,-0.199961 0.318914,-0.333425 0.394531,-0.50586 0.03781,-0.08622 0.05868,-0.195102 0.03516,-0.300781 -0.02352,-0.105679 -0.0847,-0.186262 -0.142578,-0.244141 -0.05363,-0.05363 -0.127421,-0.113281 -0.232422,-0.138671 -0.105002,-0.02539 -0.216631,-0.0047 -0.300782,0.0332 -0.168301,0.0759 -0.293887,0.197832 -0.498046,0.392578 L 74.136719,-34.1875 73.9375,-34.378906 c -0.204272,-0.194865 -0.329695,-0.316679 -0.498047,-0.392578 -0.08418,-0.03795 -0.195797,-0.05866 -0.300781,-0.0332 z m -15.095703,0.310546 c -0.03053,0.01899 -0.04641,0.05294 -0.07422,0.07422 0.03054,-0.0239 0.04182,-0.05313 0.07422,-0.07422 z m 0.722656,0.3125 c 0.09547,0.0195 0.201787,0.07874 0.347656,0.22461 0.12433,0.124963 0.151378,0.163462 0.154297,0.171875 0.0029,0.0084 0.0086,0.0776 -0.0039,0.271484 -0.0116,0.158745 -0.02705,0.238509 -0.04297,0.279297 -0.01602,0.04107 -0.03609,0.06916 -0.113281,0.146484 -0.07764,0.07764 -0.105889,0.09734 -0.146485,0.113282 -0.0406,0.01594 -0.119015,0.03039 -0.279296,0.04102 a 0.2751005,0.2751005 0 0 0 -0.002,0 c -0.193436,0.014 -0.259953,0.0085 -0.267578,0.0059 -0.0076,-0.0027 -0.04874,-0.02921 -0.173828,-0.154297 -0.145955,-0.145832 -0.205132,-0.254177 -0.224609,-0.34961 -0.01948,-0.09543 -0.0072,-0.203631 0.07031,-0.378906 0.09931,-0.224287 0.07652,-0.201631 0.300782,-0.300781 0.175211,-0.0775 0.285385,-0.08981 0.380859,-0.07031 z m 7.035156,0.40625 c -0.0077,0.0015 0.01295,0.01131 0.0098,0.0098 7.73e-4,-0.0013 -0.001,0.0077 0,0.0059 0.02165,-0.03919 0.01569,-0.02074 -0.0098,-0.01563 z m -8.257812,0.002 c -0.01003,0.04049 -0.01184,0.08067 -0.01758,0.121093 0.0016,-0.01929 -0.03215,-0.0317 -0.0293,-0.05078 0.0043,-0.02874 0.04011,-0.04223 0.04687,-0.07031 z m 16.435547,0.164062 a 0.2751005,0.2751005 0 0 0 0.33789,0 0.2751005,0.2751005 0 0 0 0.002,0.345703 0.2751005,0.2751005 0 0 0 -0.341797,0 0.2751005,0.2751005 0 0 0 0.002,-0.345703 z m -4.363282,0.265625 a 0.2751005,0.2751005 0 0 0 -0.154297,0.25 l 0.0078,-0.07422 c 0.0012,-0.0051 0.0024,-0.01136 0.0059,-0.02148 0.0034,-0.01013 0.02163,-0.04712 0.02148,-0.04687 -7.1e-5,1.22e-4 0.03522,-0.04695 0.03516,-0.04687 -6.3e-5,6.9e-5 0.07079,-0.05093 0.08398,-0.06055 z m 0.265625,0.01172 c -2e-5,-1.3e-5 0.01663,0.01375 0.03125,0.02539 a 0.2751005,0.2751005 0 0 0 -0.04297,-0.0078 c 0.0016,-0.0025 0.01172,-0.01758 0.01172,-0.01758 z m -0.146484,0.232422 c 0,0 0.02334,0.04989 0.04297,0.09375 l -0.138672,0.0625 c 0.04311,-0.06918 0.0957,-0.15625 0.0957,-0.15625 z"
         id="path17" /></g></g></svg>
