<?xml version="1.0" encoding="UTF-8" standalone="no"?>
<svg
   class="enfeite-topo"
   viewBox="0 0 283.5 27.8"
   preserveAspectRatio="none"
   transform="scale(1, -1)"
   version="1.1"
   id="svg9"
   sodipodi:docname="ondas.svg"
   inkscape:version="1.4 (1:1.4+202410161351+e7c3feb100)"
   xmlns:inkscape="http://www.inkscape.org/namespaces/inkscape"
   xmlns:sodipodi="http://sodipodi.sourceforge.net/DTD/sodipodi-0.dtd"
   xmlns="http://www.w3.org/2000/svg"
   xmlns:svg="http://www.w3.org/2000/svg">
  <defs
     id="defs9">
    <linearGradient
       id="swatch1"
       inkscape:swatch="solid">
      <stop
         style="stop-color:#32135e;stop-opacity:1;"
         offset="0"
         id="stop1" />
    </linearGradient>
  </defs>
  <sodipodi:namedview
     id="namedview9"
     pagecolor="#505050"
     bordercolor="#ffffff"
     borderopacity="1"
     inkscape:showpageshadow="0"
     inkscape:pageopacity="0"
     inkscape:pagecheckerboard="1"
     inkscape:deskcolor="#d1d1d1"
     inkscape:zoom="4.5118759"
     inkscape:cx="132.31747"
     inkscape:cy="18.728352"
     inkscape:window-width="1920"
     inkscape:window-height="1004"
     inkscape:window-x="0"
     inkscape:window-y="0"
     inkscape:window-maximized="1"
     inkscape:current-layer="svg9" />
  <path
     class="uagb-container__shape-fill"
     d="m 283.5,9.7 c 0,0 -7.3,4.3 -14,4.6 -6.8,0.3 -12.6,0 -20.9,-1.5 -11.3,-2 -33.1,-10.1 -44.7,-5.7 -11.6,4.4 -12.1,4.6 -18,7.4 -6.6,3.2 -20,9.6 -36.6,9.3 C 131.6,23.5 99.5,7.2 86.3,8 84.9,8.1 79.7,8.8 75.8,10 72,11.2 66.4,13.8 58.8,14.7 55.6,15.1 50.5,15.8 44.6,15.6 43.1,15.5 38.3,15.2 32.6,14 26.9,12.8 21.6,10.9 16.8,10.3 6.5,9.2 0,10.8 0,10.8 V 0 h 283.5 z m -22.7,1.6 c -0.7,-1 -2,-0.4 -4.3,-0.4 -2.3,0 -6.1,-1.2 -5.8,-1.1 0.3,0.1 3.1,1.5 6,1.9 3,0.5 4.7,0.6 4.1,-0.4 z M 242.4,8.6 c 0,0 -2.4,-0.2 -5.6,-0.9 -3.2,-0.8 -10.3,-2.8 -15.1,-3.5 -8.2,-1.1 -15.8,0 -15.1,0.1 0.8,0.1 9.6,-0.6 17.6,1.1 3.3,0.7 9.3,2.2 12.4,2.7 3.3,0.6 5.8,0.5 5.8,0.5 z M 185.2,8.5 c 1.7,-0.7 -13.3,4.7 -18.5,6.1 -2.1,0.6 -6.2,1.6 -10,2 -3.9,0.4 -8.9,0.4 -8.8,0.5 0,0.2 5.8,0.8 11.2,0 5.4,-0.8 5.2,-1.1 7.6,-1.6 3.8,-0.8 16.8,-6.3 18.5,-7 z m 13.9,-1.6 c 0.2,0 -0.8,-0.4 -4.8,1.1 -4,1.5 -6.7,3.5 -6.9,3.7 -0.2,0.1 3.5,-1.8 6.6,-3 3,-1.2 5,-1.8 5.1,-1.8 z M 283,6 c -0.1,0.1 -1.9,1.1 -4.8,2.5 -2.9,1.4 -6.9,2.8 -6.7,2.7 0.2,0 3.5,-0.6 7.4,-2.5 3.9,-1.9 4.2,-2.8 4.1,-2.7 z M 31.3,11.6 C 31.4,11.4 29.4,11.4 26.8,10.4 24.2,9.4 21.4,8.8 19,8.4 15,7.6 7.3,8.5 7.7,8.6 8,8.7 15.9,8.3 20.2,9.3 c 2.2,0.5 2.4,0.5 5.7,1.6 3.3,1.1 5.3,1 5.4,0.7 z M 73,9.2 C 73.4,9.1 76.5,7.6 81.4,6.6 86.3,5.5 90.3,6.1 90.3,5.8 90.3,5.5 89.3,4.9 84.1,5.5 78.9,6.1 72.6,9.3 73,9.2 Z M 71.6,6.7 C 71.8,6.8 75,5.4 77.3,5 c 2.3,-0.3 1.9,-0.5 1.9,-0.6 0,-0.1 -1.1,-0.2 -2.7,0.2 -1.7,0.5 -5.1,2 -4.9,2.1 z m 22,-2.3 c 0.1,0.2 3.5,0.8 5.6,1.8 2.1,1 1.8,0.6 1.9,0.5 0.1,-0.1 -0.8,-0.8 -2.4,-1.3 -1.6,-0.6 -5.2,-1.2 -5.1,-1 z m -28.2,6.7 c -0.1,0.3 0.3,0.5 1.9,-0.2 1.6,-0.7 2.6,-1.3 2.2,-1.2 -0.4,0.1 -0.9,0.4 -2.5,0.8 -1.7,0.4 -1.5,0.3 -1.6,0.6 z m -30.9,1.3 c -0.2,0 2.1,0.8 3.3,0.9 1.2,0.1 2,0.1 2,-0.2 0,-0.3 -0.1,-0.5 -1.6,-0.4 -1.6,0.1 -3.5,-0.3 -3.7,-0.3 z m 117.7,8.7 c -0.1,0.1 -2.4,-0.3 -7.5,-0.3 -5,0 -13.6,-2.4 -17.2,-3.5 -3.6,-1.1 10,3.9 16.5,4.1 6.5,0.2 8.3,-0.4 8.2,-0.3 z"
     id="path1"
     style="fill:url(#swatch1);fill-opacity:1" />
  <path
     class="uagb-container__shape-fill"
     d="M269.6,18c-0.1-0.1-4.6,0.3-7.2,0c-7.3-0.7-17-3.2-16.6-2.9c0.4,0.3,13.7,3.1,17,3.3 C267.7,18.8,269.7,18,269.6,18z"
     id="path2"
     style="fill:url(#swatch1)" />
  <path
     class="uagb-container__shape-fill"
     d="M227.4,9.8c-0.2-0.1-4.5-1-9.5-1.2c-5-0.2-12.7,0.6-12.3,0.5c0.3-0.1,5.9-1.8,13.3-1.2 S227.6,9.9,227.4,9.8z"
     id="path3"
     style="fill:url(#swatch1)" />
  <path
     class="uagb-container__shape-fill"
     d="M204.5,13.4c-0.1-0.1,2-1,3.2-1.1c1.2-0.1,2,0,2,0.3c0,0.3-0.1,0.5-1.6,0.4 C206.4,12.9,204.6,13.5,204.5,13.4z"
     id="path4"
     style="fill:url(#swatch1)" />
  <path
     class="uagb-container__shape-fill"
     d="M201,10.6c0-0.1-4.4,1.2-6.3,2.2c-1.9,0.9-6.2,3.1-6.1,3.1c0.1,0.1,4.2-1.6,6.3-2.6 S201,10.7,201,10.6z"
     id="path5"
     style="fill:url(#swatch1)" />
  <path
     class="uagb-container__shape-fill"
     d="M154.5,26.7c-0.1-0.1-4.6,0.3-7.2,0c-7.3-0.7-17-3.2-16.6-2.9c0.4,0.3,13.7,3.1,17,3.3 C152.6,27.5,154.6,26.8,154.5,26.7z"
     id="path6"
     style="fill:url(#swatch1)" />
  <path
     class="uagb-container__shape-fill"
     d="M41.9,19.3c0,0,1.2-0.3,2.9-0.1c1.7,0.2,5.8,0.9,8.2,0.7c4.2-0.4,7.4-2.7,7-2.6 c-0.4,0-4.3,2.2-8.6,1.9c-1.8-0.1-5.1-0.5-6.7-0.4S41.9,19.3,41.9,19.3z"
     id="path7"
     style="fill:url(#swatch1)" />
  <path
     class="uagb-container__shape-fill"
     d="M75.5,12.6c0.2,0.1,2-0.8,4.3-1.1c2.3-0.2,2.1-0.3,2.1-0.5c0-0.1-1.8-0.4-3.4,0 C76.9,11.5,75.3,12.5,75.5,12.6z"
     id="path8"
     style="fill:url(#swatch1)" />
  <path
     class="uagb-container__shape-fill"
     d="M15.6,13.2c0-0.1,4.3,0,6.7,0.5c2.4,0.5,5,1.9,5,2c0,0.1-2.7-0.8-5.1-1.4 C19.9,13.7,15.7,13.3,15.6,13.2z"
     id="path9"
     style="fill:url(#swatch1)" />
</svg>
